<svg width="20" height="20" viewBox="0 0 20 20" fill="none" xmlns="http://www.w3.org/2000/svg">
<path d="M12.2491 7.75L7.74925 12.25M7.74915 7.75L12.2491 12.25" stroke="#1843BF" stroke-width="1.5" stroke-linecap="round"/>
<path d="M18.9993 10C18.9993 14.2426 18.9993 16.364 17.6812 17.682C16.3632 19 14.2419 19 9.9993 19C5.75663 19 3.63531 19 2.31729 17.682C0.999267 16.364 0.999268 14.2426 0.999268 10C0.999268 5.75736 0.999267 3.63604 2.31729 2.31802C3.63531 1 5.75663 1 9.9993 1C14.2419 1 16.3632 1 17.6812 2.31802C18.5576 3.19439 18.8513 4.4259 18.9497 6.4" stroke="#1843BF" stroke-width="1.5" stroke-linecap="round"/>
</svg>
