<svg width="18" height="19" viewBox="0 0 18 19" fill="none" xmlns="http://www.w3.org/2000/svg">
<path d="M16.9983 4.19995H1.13159" stroke="white" stroke-width="1.5" stroke-linecap="round"/>
<path d="M6.73169 8.8667L7.19839 13.5334" stroke="white" stroke-width="1.5" stroke-linecap="round"/>
<path d="M11.3983 8.8667L10.9316 13.5334" stroke="white" stroke-width="1.5" stroke-linecap="round"/>
<path d="M3.93164 4.20015C3.98379 4.20015 4.00987 4.20015 4.03351 4.19955C4.80206 4.18007 5.4801 3.69139 5.7416 2.96845C5.7496 2.94621 5.7579 2.92147 5.7744 2.87199L5.865 2.60015C5.9423 2.36809 5.981 2.25205 6.0323 2.15353C6.237 1.76048 6.6157 1.48754 7.0533 1.41766C7.163 1.40015 7.2853 1.40015 7.5299 1.40015H10.6001C10.8447 1.40015 10.967 1.40015 11.0767 1.41766C11.5143 1.48754 11.893 1.76048 12.0976 2.15353C12.1489 2.25205 12.1876 2.36808 12.265 2.60015L12.3556 2.87199C12.3721 2.9214 12.3803 2.94622 12.3884 2.96845C12.6499 3.69139 13.3279 4.18007 14.0964 4.19955C14.1201 4.20015 14.1462 4.20015 14.1983 4.20015" stroke="white" stroke-width="1.5"/>
<path d="M15.0138 12.9726C14.8486 15.4505 14.766 16.6895 13.9586 17.4448C13.1513 18.2001 11.9096 18.2001 9.4262 18.2001H8.7044C6.221 18.2001 4.97925 18.2001 4.17191 17.4448C3.36457 16.6895 3.28197 15.4505 3.11678 12.9726L2.6875 6.53339M15.4431 6.53339L15.2564 9.33339" stroke="white" stroke-width="1.5" stroke-linecap="round"/>
</svg>
