<svg width="256" height="376" viewBox="0 0 256 376" fill="none" xmlns="http://www.w3.org/2000/svg">
<g clip-path="url(#clip0_33_13)">
<path d="M318.427 76.8836L192.885 17.9336C175.964 29.3961 192.885 56.1419 250.744 108.542C297.03 150.462 315.152 104.903 318.427 76.8836ZM41.6011 360.104L64.2041 223.266C83.2391 215.824 95.6801 244.925 106.049 322.294C114.344 384.188 66.5401 373.291 41.6011 360.104Z" fill="#2E3289"/>
<path d="M72.781 45.225C72.781 42.9088 73.701 40.6875 75.339 39.0496C76.977 37.4118 79.198 36.4917 81.515 36.4917H214.698C217.014 36.4917 219.235 37.4118 220.873 39.0496C222.511 40.6875 223.431 42.9088 223.431 45.225V141.292H72.781V45.225Z" fill="#D8C0BE"/>
<path d="M72.781 237.359C72.781 239.675 73.701 241.896 75.339 243.534C76.977 245.172 79.198 246.092 81.515 246.092H214.698C217.014 246.092 219.235 245.172 220.873 243.534C222.511 241.896 223.431 239.675 223.431 237.359V141.292H72.781V237.359Z" fill="white"/>
<path d="M130.64 158.758H85.881C83.47 158.758 81.515 160.713 81.515 163.125V214.433C81.515 216.845 83.47 218.8 85.881 218.8H130.64C133.051 218.8 135.006 216.845 135.006 214.433V163.125C135.006 160.713 133.051 158.758 130.64 158.758Z" fill="#FCE9B9"/>
<path d="M86.758 213.014C85.675 215.304 85.879 217.163 85.879 218.8H130.092C129.546 216.617 129.338 216.071 128.414 214.01C125.19 206.827 115.848 203.148 105.557 203.546C95.2671 203.945 89.702 206.792 86.758 213.014Z" fill="#42B4EB"/>
<path fill-rule="evenodd" clip-rule="evenodd" d="M103.237 198.274L103.671 206.125C103.671 206.125 102.936 210.367 108.834 209.579C114.707 208.802 113.984 205.326 113.984 205.326L112.171 195.576L103.237 198.274Z" fill="white"/>
<path fill-rule="evenodd" clip-rule="evenodd" d="M112.075 195.257L103.142 197.955C103.07 197.976 103.008 198.021 102.965 198.082C102.922 198.144 102.901 198.217 102.905 198.292L103.337 206.108L103.333 206.144L103.325 206.21C103.27 206.774 103.334 207.417 103.612 208.036C104.289 209.549 105.978 210.297 108.878 209.908C111.246 209.595 112.786 208.829 113.631 207.732C114.245 206.934 114.412 206.095 114.331 205.384L114.326 205.339L114.315 205.27L112.499 195.515C112.491 195.469 112.473 195.425 112.446 195.386C112.419 195.348 112.385 195.315 112.345 195.291C112.305 195.267 112.26 195.251 112.213 195.245C112.167 195.239 112.119 195.244 112.075 195.257ZM103.586 198.517L111.912 196.002L113.66 205.403C113.662 205.417 113.665 205.435 113.667 205.459C113.731 206.012 113.598 206.681 113.102 207.326C112.375 208.27 110.995 208.957 108.79 209.248C106.161 209.6 104.766 208.982 104.221 207.764C104.017 207.296 103.937 206.783 103.99 206.274L103.994 206.227L104.001 206.182L104.004 206.156C104.006 206.14 104.006 206.123 104.005 206.106L103.586 198.517Z" fill="#2E3289"/>
<path fill-rule="evenodd" clip-rule="evenodd" d="M114.43 185.67C114.43 185.67 118.993 183.961 119.171 188.702C119.348 193.443 114.43 192.21 114.43 192.21" fill="white"/>
<path fill-rule="evenodd" clip-rule="evenodd" d="M114.872 185.195C115.531 185.04 116.211 184.985 116.856 185.089C118.428 185.345 119.42 186.493 119.502 188.689C119.588 190.959 118.576 192.203 116.874 192.574C116.18 192.726 115.451 192.717 114.761 192.612L114.653 192.595C114.551 192.578 114.449 192.557 114.349 192.533C114.262 192.514 114.187 192.462 114.14 192.388C114.092 192.313 114.076 192.223 114.095 192.137C114.114 192.05 114.166 191.975 114.241 191.928C114.315 191.88 114.405 191.864 114.492 191.883L114.565 191.899L114.599 191.907C114.675 191.922 114.763 191.938 114.862 191.954C115.477 192.047 116.129 192.054 116.731 191.923C118.124 191.619 118.909 190.656 118.835 188.714L118.831 188.601C118.734 186.797 117.978 185.947 116.748 185.747C116.202 185.658 115.606 185.707 115.025 185.844C114.913 185.871 114.809 185.898 114.715 185.927L114.67 185.941L114.587 185.968L114.547 185.982C114.506 185.998 114.463 186.005 114.419 186.003C114.375 186.002 114.332 185.992 114.292 185.974C114.252 185.956 114.216 185.93 114.186 185.898C114.156 185.866 114.133 185.828 114.118 185.787C114.102 185.746 114.095 185.703 114.097 185.659C114.098 185.615 114.108 185.572 114.126 185.532C114.144 185.492 114.17 185.456 114.202 185.427C114.234 185.397 114.272 185.373 114.313 185.358L114.355 185.343C114.472 185.302 114.648 185.249 114.872 185.195Z" fill="#2E3289"/>
<path fill-rule="evenodd" clip-rule="evenodd" d="M105.875 200.661C100.935 200.661 96.9299 196.664 96.9299 191.734V183.938C96.9299 180.784 99.4999 178.219 102.659 178.219H110.492C111.641 178.219 112.743 178.675 113.556 179.487C114.37 180.299 114.828 181.4 114.83 182.549V191.722C114.83 196.653 110.826 200.661 105.875 200.661Z" fill="white"/>
<path fill-rule="evenodd" clip-rule="evenodd" d="M110.493 177.886H102.661C99.3159 177.886 96.5969 180.6 96.5969 183.938V191.734C96.5969 196.848 100.752 200.994 105.876 200.994L106.027 200.993C111.095 200.911 115.165 196.783 115.165 191.722V182.549C115.163 181.312 114.669 180.126 113.793 179.251C112.917 178.377 111.73 177.886 110.493 177.886ZM102.661 178.552H110.493C111.554 178.552 112.571 178.973 113.322 179.723C114.073 180.472 114.496 181.489 114.498 182.549V191.722C114.498 196.419 110.721 200.251 106.019 200.327L105.873 200.328C101.121 200.328 97.265 196.479 97.265 191.734V183.938C97.268 182.509 97.8379 181.139 98.8489 180.129C99.8609 179.119 101.232 178.552 102.661 178.552Z" fill="#2E3289"/>
<path fill-rule="evenodd" clip-rule="evenodd" d="M103.133 186.037C103.218 186.036 103.3 186.067 103.363 186.124C103.426 186.181 103.465 186.26 103.471 186.345V186.364L103.591 193.413L103.597 193.416C103.626 193.424 103.657 193.421 103.684 193.408L103.7 193.401C103.873 193.328 104.099 193.08 104.358 192.607C104.402 192.533 104.473 192.48 104.556 192.458C104.639 192.436 104.727 192.446 104.802 192.487C104.878 192.528 104.934 192.596 104.961 192.678C104.987 192.759 104.981 192.848 104.944 192.925C104.334 194.04 103.678 194.321 103.154 193.925C103.089 193.878 103.033 193.821 102.987 193.756C102.954 193.708 102.933 193.653 102.928 193.596L102.926 193.572L102.804 186.375C102.803 186.287 102.837 186.202 102.899 186.138C102.96 186.075 103.044 186.038 103.133 186.037ZM106.649 194.464C106.835 194.342 107.086 194.433 107.151 194.646L107.159 194.673C107.276 195.13 107.216 195.614 106.992 196.029C106.62 196.718 105.814 197.168 104.517 197.295C104.473 197.3 104.429 197.295 104.388 197.283C104.346 197.27 104.307 197.249 104.273 197.221C104.239 197.193 104.211 197.159 104.19 197.121C104.17 197.082 104.157 197.04 104.152 196.996C104.148 196.953 104.152 196.909 104.165 196.867C104.178 196.825 104.199 196.786 104.226 196.752C104.254 196.718 104.288 196.69 104.327 196.669C104.366 196.649 104.408 196.636 104.452 196.632C105.543 196.525 106.148 196.187 106.405 195.712C106.468 195.596 106.508 195.474 106.529 195.353L106.537 195.306L106.526 195.312C105.076 196.091 103.626 196.144 102.908 195.341L102.884 195.314C102.827 195.247 102.798 195.159 102.805 195.071C102.812 194.983 102.854 194.901 102.922 194.844C102.989 194.787 103.076 194.758 103.164 194.765C103.252 194.773 103.334 194.814 103.392 194.882C103.908 195.486 105.275 195.361 106.649 194.464ZM106.172 183.438C106.9 182.884 107.765 182.825 108.697 183.567C108.764 183.622 108.806 183.702 108.815 183.789C108.824 183.875 108.799 183.962 108.744 184.03C108.69 184.098 108.611 184.142 108.525 184.153C108.439 184.164 108.351 184.14 108.282 184.087C107.608 183.551 107.077 183.588 106.576 183.968C106.508 184.02 106.444 184.075 106.383 184.134L106.26 184.255C106.245 184.27 106.229 184.284 106.212 184.298C106.171 184.334 106.121 184.36 106.067 184.372C105.993 184.391 105.913 184.384 105.844 184.351C105.774 184.319 105.717 184.263 105.684 184.193C105.651 184.124 105.643 184.045 105.661 183.97C105.68 183.895 105.724 183.829 105.786 183.783L105.801 183.772L105.874 183.7C105.973 183.6 106.064 183.52 106.172 183.438ZM108.489 189.346C108.795 189.346 109.044 188.963 109.044 188.49C109.044 188.018 108.795 187.635 108.489 187.635C108.181 187.635 107.932 188.018 107.932 188.49C107.932 188.963 108.181 189.346 108.489 189.346ZM100.401 189.556C100.708 189.556 100.957 189.173 100.957 188.702C100.957 188.229 100.708 187.847 100.401 187.847C100.094 187.847 99.845 188.229 99.845 188.702C99.845 189.173 100.094 189.556 100.401 189.556ZM98.85 183.333C99.683 182.669 100.597 182.637 101.399 183.667C101.426 183.701 101.446 183.741 101.458 183.783C101.47 183.825 101.473 183.869 101.468 183.913C101.462 183.956 101.448 183.998 101.427 184.036C101.405 184.074 101.376 184.107 101.341 184.134C101.271 184.188 101.183 184.212 101.095 184.202C101.008 184.191 100.928 184.146 100.873 184.076C100.33 183.381 99.838 183.398 99.266 183.854C99.19 183.915 99.12 183.978 99.042 184.053L98.911 184.183C98.893 184.201 98.879 184.215 98.863 184.227C98.821 184.266 98.77 184.293 98.714 184.306C98.639 184.323 98.561 184.315 98.492 184.282C98.423 184.249 98.367 184.194 98.335 184.125C98.302 184.056 98.293 183.977 98.311 183.903C98.329 183.829 98.371 183.763 98.432 183.716L98.445 183.706L98.53 183.621C98.641 183.512 98.738 183.422 98.85 183.333Z" fill="#2E3289"/>
<path fill-rule="evenodd" clip-rule="evenodd" d="M108.111 176.277C105.942 176.309 104.294 176.41 103.316 176.598C95.35 178.409 96.641 184.294 96.641 184.294C96.641 184.294 100.535 185.037 103.705 180.352C103.705 180.352 108.055 183.894 114.497 185.327C114.596 185.304 114.719 185.271 114.83 185.237V185.559C115.359 185.419 115.908 185.363 116.454 185.393C116.388 183.072 115.965 180.14 114.052 178.253C112.695 176.909 110.692 176.243 108.111 176.277Z" fill="#2E3289"/>
<path fill-rule="evenodd" clip-rule="evenodd" d="M103.493 175.879C104.762 175.703 106.76 175.587 108.482 175.598C111.921 175.634 114.219 176.9 115.58 179.13C116.116 180.008 116.49 181.008 116.743 182.129C116.928 182.956 117.028 183.714 117.121 184.786C117.125 184.872 117.095 184.955 117.038 185.02C116.982 185.084 116.902 185.124 116.817 185.132C116.731 185.139 116.646 185.113 116.579 185.06C116.512 185.006 116.468 184.929 116.457 184.844L116.438 184.645C116.231 182.407 115.875 180.893 115.01 179.476C113.77 177.445 111.686 176.298 108.477 176.264H108.28C106.636 176.263 104.773 176.375 103.585 176.539C103.541 176.545 103.497 176.543 103.455 176.532C103.413 176.521 103.373 176.501 103.338 176.475C103.303 176.449 103.274 176.416 103.251 176.378C103.229 176.34 103.215 176.298 103.209 176.255C103.203 176.212 103.205 176.168 103.216 176.125C103.227 176.083 103.247 176.043 103.273 176.008C103.299 175.973 103.332 175.944 103.37 175.922C103.408 175.899 103.45 175.885 103.493 175.879Z" fill="white"/>
<path fill-rule="evenodd" clip-rule="evenodd" d="M129.015 171.445C126.267 163.605 118.479 159.197 111.615 161.596C105.974 163.561 102.715 169.524 103.25 175.931C104.283 175.753 105.908 175.642 108.111 175.609C110.881 175.575 113.04 176.298 114.53 177.775C116.644 179.862 117.078 183.027 117.133 185.492C118.156 185.769 119.103 186.602 119.18 188.702C119.191 188.912 119.002 190.544 119.047 190.533C119.047 191.055 119.159 191.711 119.547 192.354C120.316 193.588 121.872 194.353 124.187 194.621H124.231C124.313 194.621 124.391 194.592 124.453 194.539C124.514 194.485 124.554 194.412 124.566 194.331C124.575 194.245 124.549 194.158 124.495 194.089C124.441 194.021 124.363 193.976 124.276 193.965C122.185 193.721 120.783 193.065 120.126 192.01C119.895 191.638 119.758 191.215 119.725 190.778C120.293 191.444 121.283 192.167 122.852 192.167C123.23 192.167 123.642 192.122 124.086 192.032C124.129 192.025 124.17 192.008 124.206 191.984C124.243 191.96 124.274 191.929 124.298 191.893C124.322 191.856 124.338 191.816 124.346 191.773C124.354 191.73 124.353 191.686 124.343 191.644C124.335 191.601 124.318 191.56 124.294 191.524C124.27 191.488 124.238 191.457 124.202 191.434C124.166 191.41 124.125 191.394 124.082 191.386C124.039 191.378 123.995 191.38 123.953 191.389C121.928 191.811 120.805 191.044 120.215 190.357C120.672 190.256 121.116 190.134 121.561 189.979C128.415 187.568 131.752 179.274 129.015 171.445ZM108.967 184.303C107.799 184.302 106.679 184.765 105.853 185.59C105.027 186.415 104.562 187.534 104.561 188.702C104.561 189.28 104.676 189.852 104.897 190.386C105.119 190.919 105.444 191.404 105.853 191.813C106.262 192.221 106.748 192.545 107.282 192.765C107.816 192.986 108.389 193.099 108.967 193.099C109.545 193.099 110.117 192.986 110.651 192.765C111.186 192.545 111.671 192.221 112.08 191.813C112.49 191.404 112.814 190.919 113.036 190.386C113.258 189.852 113.372 189.28 113.373 188.702C113.372 187.534 112.907 186.415 112.08 185.59C111.254 184.765 110.134 184.302 108.967 184.303ZM108.967 184.97C109.457 184.97 109.943 185.066 110.396 185.253C110.85 185.44 111.262 185.715 111.609 186.061C111.956 186.408 112.231 186.82 112.419 187.273C112.607 187.726 112.704 188.211 112.705 188.702C112.704 189.192 112.607 189.677 112.419 190.13C112.231 190.583 111.955 190.995 111.608 191.341C111.261 191.687 110.849 191.962 110.396 192.149C109.943 192.336 109.457 192.432 108.967 192.432C108.476 192.432 107.991 192.336 107.537 192.149C107.084 191.962 106.672 191.687 106.325 191.341C105.978 190.995 105.702 190.583 105.514 190.13C105.326 189.677 105.229 189.192 105.229 188.702C105.229 188.211 105.326 187.726 105.514 187.273C105.702 186.82 105.978 186.408 106.325 186.061C106.672 185.715 107.084 185.44 107.537 185.253C107.99 185.066 108.476 184.97 108.967 184.97Z" fill="#2E3289"/>
<path fill-rule="evenodd" clip-rule="evenodd" d="M104.807 188.268C104.896 188.266 104.981 188.298 105.046 188.359C105.11 188.42 105.148 188.503 105.15 188.592C105.153 188.68 105.12 188.766 105.06 188.83C104.999 188.894 104.915 188.932 104.827 188.934L104.807 188.935H102.159C102.075 188.932 101.995 188.896 101.936 188.836C101.877 188.776 101.843 188.696 101.84 188.612C101.838 188.527 101.867 188.445 101.923 188.382C101.978 188.318 102.056 188.278 102.139 188.269L102.159 188.268H104.807ZM114.664 185.146C114.702 185.125 114.744 185.111 114.788 185.105C114.832 185.1 114.876 185.103 114.918 185.115C114.96 185.127 115 185.147 115.034 185.174C115.069 185.201 115.098 185.235 115.119 185.273C115.161 185.347 115.173 185.434 115.153 185.516C115.133 185.599 115.082 185.67 115.01 185.716L114.993 185.727L112.69 187.026C112.652 187.048 112.61 187.062 112.567 187.067C112.523 187.072 112.479 187.069 112.437 187.057C112.394 187.045 112.355 187.025 112.32 186.998C112.286 186.971 112.257 186.938 112.235 186.899C112.193 186.826 112.181 186.739 112.201 186.656C112.222 186.574 112.273 186.502 112.344 186.456L112.362 186.446L114.664 185.146Z" fill="#2E3289"/>
<path fill-rule="evenodd" clip-rule="evenodd" d="M97.952 184.304C97.374 184.303 96.801 184.417 96.267 184.638C95.733 184.858 95.247 185.182 94.838 185.591C94.429 185.999 94.105 186.484 93.883 187.018C93.662 187.552 93.547 188.124 93.547 188.702C93.548 189.869 94.013 190.988 94.839 191.813C95.665 192.637 96.785 193.1 97.952 193.099C98.53 193.1 99.102 192.987 99.637 192.766C100.171 192.545 100.656 192.221 101.065 191.813C101.475 191.405 101.799 190.92 102.021 190.386C102.243 189.852 102.357 189.28 102.358 188.702C102.357 187.535 101.892 186.415 101.066 185.591C100.239 184.766 99.119 184.303 97.952 184.304ZM97.952 184.971C98.442 184.97 98.928 185.066 99.381 185.253C99.835 185.441 100.247 185.715 100.594 186.062C100.941 186.408 101.216 186.82 101.404 187.273C101.592 187.726 101.689 188.212 101.69 188.702C101.689 189.192 101.592 189.678 101.404 190.131C101.216 190.584 100.941 190.995 100.593 191.341C100.246 191.688 99.834 191.962 99.381 192.15C98.928 192.337 98.442 192.433 97.952 192.432C97.461 192.433 96.976 192.337 96.522 192.15C96.069 191.962 95.657 191.688 95.31 191.341C94.963 190.995 94.688 190.584 94.499 190.131C94.311 189.678 94.214 189.192 94.214 188.702C94.214 188.212 94.311 187.726 94.499 187.273C94.687 186.82 94.963 186.408 95.31 186.062C95.657 185.715 96.069 185.441 96.522 185.253C96.976 185.066 97.461 184.97 97.952 184.971Z" fill="#2E3289"/>
<path d="M81.515 231.9H214.698V235.175H81.515V231.9Z" fill="#D8C0BE"/>
<path d="M49.3101 127.646H245.81V259.738H49.3101V127.646Z" stroke="white" stroke-width="1.09167"/>
<path d="M262.752 0.466797L174.327 39.7668C173.454 55.4868 199.8 48.1366 213.081 42.496L183.06 61.0543C190.047 87.2543 231.822 59.0533 251.836 42.496L238.736 55.0501L220.723 81.2501C240.373 93.4768 254.019 70.3335 258.385 57.2335L269.302 59.4168L252.928 70.8793L246.377 98.171C263.844 103.411 267.847 85.071 267.664 75.246L276.944 80.1585C278.254 149.588 318.973 148.388 339.169 139.108L315.152 8.6543L262.752 0.466797Z" fill="#6271BF"/>
<path d="M148.106 158.758H195.048V165.308H148.106V158.758ZM148.106 175.133H174.306V178.408H148.106V175.133ZM148.106 186.05H174.306V189.325H148.106V186.05ZM148.106 205.7H174.306V208.975H148.106V205.7ZM148.106 194.783H208.148V200.242H148.106V194.783Z" fill="#D8C0BE"/>
<path d="M10.205 270.92L92.706 220.353C106.151 228.544 67.23 259.089 55.055 266.834L105.292 239.615C122.916 260.222 76.002 278.65 51.017 285.752L68.786 282.076L100.579 282.09C99.513 305.209 72.712 303.331 59.444 299.502L55.055 309.733L73.78 302.741L99.977 312.816C94.392 330.175 77.015 323.076 69.024 317.357L67.81 327.786C124.264 368.223 100.192 401.088 81.1 412.464H46.578L0.182007 339.974L10.205 270.92Z" fill="#6271BF"/>
</g>
<defs>
<clipPath id="clip0_33_13">
<rect width="256" height="376" fill="white"/>
</clipPath>
</defs>
</svg>
