<svg width="21" height="21" viewBox="0 0 21 21" fill="none" xmlns="http://www.w3.org/2000/svg">
<path d="M10.9207 6.24188V12.7752M10.9207 12.7752L13.7207 9.97518M10.9207 12.7752L8.12073 9.97518" stroke="#1843BF" stroke-width="1.5" stroke-linecap="round" stroke-linejoin="round"/>
<path d="M14.654 15.5752H10.9207H7.18726" stroke="#1843BF" stroke-width="1.5" stroke-linecap="round"/>
<path d="M20.2539 10.9086C20.2539 15.3083 20.2539 17.5082 18.8871 18.8751C17.5202 20.2419 15.3204 20.2419 10.9206 20.2419C6.52084 20.2419 4.32095 20.2419 2.95412 18.8751C1.58728 17.5082 1.58728 15.3083 1.58728 10.9086C1.58728 6.50883 1.58728 4.30893 2.95412 2.9421C4.32095 1.57526 6.52084 1.57526 10.9206 1.57526C15.3204 1.57526 17.5202 1.57526 18.8871 2.9421C19.7959 3.85092 20.1004 5.12805 20.2025 7.17523" stroke="#1843BF" stroke-width="1.5" stroke-linecap="round"/>
</svg>
