<svg width="18" height="18" viewBox="0 0 18 18" fill="none" xmlns="http://www.w3.org/2000/svg">
<g clip-path="url(#clip0_460_43)">
<path d="M5 4.14034C5.52016 4.61402 6.5917 5.90876 6.71654 7.29824C6.80008 8.22803 7.26315 9.03305 8 9.42068C8.29242 9.5745 8.62796 9.66259 9 9.66666C9.50325 9.67215 10.0122 9.30858 10.0109 8.8053C10.0105 8.64967 9.98484 8.49055 9.94464 8.34416C9.88874 8.14054 9.88378 7.90629 10 7.66666C10.4066 6.82835 11.2063 6.60317 11.8399 6.14789C12.1209 5.94598 12.3773 5.73297 12.4903 5.56139C12.8024 5.08771 13.1145 4.14034 12.9585 3.66666" stroke="white" stroke-width="1.5"/>
<path d="M15.6667 9.66666C15.4471 10.2873 15.2917 11.9167 12.8122 11.9425C12.8122 11.9425 12.2832 11.9425 11.6667 12.0893M9.95766 13.1839C9.43068 14.177 9.73809 15.2529 9.95766 15.6667" stroke="white" stroke-width="1.5" stroke-linecap="round"/>
<path d="M5.66665 14.7748C6.64722 15.342 7.78569 15.6667 8.99998 15.6667C12.6819 15.6667 15.6666 12.6819 15.6666 8.99999C15.6666 5.31809 12.6819 2.33332 8.99998 2.33332C5.31808 2.33332 2.33331 5.31809 2.33331 8.99999C2.33331 10.2143 2.65796 11.3527 3.22519 12.3333" stroke="white" stroke-width="1.5" stroke-linecap="round"/>
</g>
<defs>
<clipPath id="clip0_460_43">
<rect width="18" height="18" fill="white"/>
</clipPath>
</defs>
</svg>
