<svg width="236" height="44" viewBox="0 0 236 44" fill="none" xmlns="http://www.w3.org/2000/svg">
<rect width="236" height="44" fill="none"/>
<path d="M1.34732 20.8282L12.395 7.63299H21.7225L10.6748 20.8326H1.34732V20.8282ZM8.4321 31.9316L24.5937 12.625C25.7851 11.136 27.1125 9.76592 28.5588 8.53198C30.2556 7.11219 32.2392 6.08138 34.3799 5.52599C37.1535 4.78908 40.0822 4.86256 42.8197 5.73561C45.5296 6.59354 47.8912 8.31155 49.5668 10.6217C51.6927 13.6558 52.5867 17.3901 52.0621 21.066C51.82 22.8747 51.2275 24.6252 50.3143 26.2027C49.3969 27.7803 48.1842 29.159 46.7337 30.2633C45.0772 31.4972 43.1616 32.3379 41.1313 32.7096C39.9866 32.9516 38.8185 33.0856 37.6462 33.0985H33.0887L24.8316 42.9809H15.5296L28.7435 27.173L29.8245 25.8786H35.9642C38.122 25.8786 40.4028 25.8786 42.2675 24.6576H42.3035C43.1785 24.0503 43.9006 23.2378 44.406 22.2913C44.9115 21.3447 45.1855 20.2966 45.2131 19.2248C45.2364 18.1529 45.0071 17.0897 44.5462 16.1215C44.0854 15.1556 43.4016 14.3128 42.5521 13.6623L42.4608 13.5975L42.4098 13.5607L42.3418 13.5089C41.2736 12.7525 40.01 12.3268 38.706 12.2879H38.6338C37.7907 12.2511 36.9454 12.3397 36.1299 12.5515C34.9894 12.8584 33.9275 13.4138 33.0186 14.1853C31.9143 15.1447 30.9013 16.2036 29.9901 17.349L17.7108 32.0116L8.4321 31.9467L8.42786 31.9338L8.4321 31.9316Z" fill="#FF6600"/>
<path fill-rule="evenodd" clip-rule="evenodd" d="M125.1 24.5949C122.859 27.1968 118.459 26.5441 115.415 26.6176C113.381 26.6176 110.034 25.7878 110.488 23.134C110.488 22.9849 110.703 21.6365 110.711 21.5284H114.451C115.551 21.5284 115.241 21.8569 115.107 22.8272C115.004 23.9596 116.371 24.3637 117.282 24.3442C118.34 24.3442 119.75 24.4977 120.621 23.7543C120.803 23.6203 120.949 23.4388 121.049 23.2356C121.177 23.0822 121.446 20.785 121.502 20.5538V20.5257C121.398 18.3863 117.783 19.1383 116.424 19.0086C115.311 19.0324 114.207 18.799 113.194 18.3322C112.319 17.8828 111.438 17.0248 111.552 15.9702C111.552 15.9292 111.758 13.6925 111.758 13.6558C111.83 13.3035 111.973 12.9643 112.173 12.6682C112.372 12.3721 112.629 12.1107 112.93 11.9162C115.184 10.0512 118.887 10.4834 121.606 10.4445C122.869 10.4034 124.12 10.7233 125.21 11.3629C125.337 11.4472 125.456 11.5401 125.575 11.6374C125.845 11.8557 126.077 12.1193 126.255 12.4175C126.41 12.6682 126.497 12.9513 126.51 13.243C126.523 13.5348 126.459 13.8287 126.332 14.088H122.56C121.765 14.088 121.975 13.9951 121.583 13.4289C121.356 13.1696 121.067 12.9643 120.748 12.8389C120.43 12.7093 120.081 12.6574 119.74 12.6855C118.675 12.6488 117.363 12.6855 116.632 13.5758C116.299 13.8352 116.275 14.7169 116.204 15.1015C116.039 16.2015 117.046 16.5256 118.329 16.5019C119.903 16.5386 122.307 16.3247 123.781 16.9103L123.959 16.9751C123.959 16.9751 125.509 17.7358 125.938 18.4878C126.523 19.2723 125.704 22.4404 125.669 23.4517C125.586 23.8882 125.395 24.2924 125.112 24.6295V24.5927H125.093L125.1 24.5949ZM86.2266 18.2436C85.8975 18.369 85.564 18.4662 85.2179 18.5311C83.6038 18.9589 81.0171 18.1594 80.3185 20.2015C80.3185 20.489 79.9212 22.9612 80.0084 23.1989C80.242 24.1087 81.3399 24.3766 82.1746 24.3766H84.5149C84.9121 24.3356 85.2986 24.2189 85.6554 24.033C85.8784 23.9271 86.0802 23.778 86.2394 23.5922C86.3944 23.415 86.4985 23.1989 86.5367 22.9655C86.577 22.637 87.1654 18.0189 87.1845 17.8719C86.902 17.913 86.4773 18.114 86.2182 18.2004V18.2372L86.2266 18.2415V18.2436ZM92.3792 13.5845L90.6631 26.1638V26.3583C89.3676 26.6652 88.0361 26.7473 86.713 26.6003C86.2564 26.5355 86.0504 26.3821 86.2011 25.6819C84.3535 26.475 82.3466 26.8056 80.3481 26.6414C79.1844 26.6565 78.0354 26.4102 76.982 25.9174C76.107 25.4809 75.2257 24.6424 75.3531 23.5554C75.3531 23.5554 75.8968 20.0157 75.8904 20.0157C75.9095 19.8298 75.9456 19.6483 76.0009 19.4733C76.0327 19.3717 76.0688 19.2701 76.1198 19.1707C76.1707 19.0692 76.2238 18.9719 76.2875 18.8747C76.3385 18.8012 76.3874 18.7299 76.4469 18.6607C76.7251 18.3128 77.0542 18.0103 77.4237 17.7704C78.0949 17.3295 78.8276 17.0097 79.6049 16.8195C80.9449 16.4068 83.7419 16.5969 85.1521 16.5559C85.855 16.5753 86.5388 16.3463 87.0953 15.9205C87.2864 15.7758 87.4372 15.5856 87.5328 15.363C87.6198 15.0345 87.6877 14.6996 87.7324 14.3603C87.7515 14.1939 87.7324 14.021 87.6772 13.8632C87.6219 13.7055 87.5413 13.5564 87.4265 13.431C86.679 12.558 85.2179 12.7806 84.2006 12.759C83.7908 12.759 83.3787 12.8324 82.9964 12.9815C81.9388 13.3295 82.079 14.2025 81.0171 14.0902H77.1859V13.9843C77.1987 13.7855 77.2305 13.5845 77.2857 13.3943C77.5639 12.6898 78.0758 12.0999 78.732 11.7238C80.0785 10.9026 81.6287 10.4812 83.2024 10.5072C84.6849 10.559 88.2527 10.3257 89.6395 10.7665C90.2108 10.9156 90.7524 11.1512 91.2493 11.4753C91.8248 11.8232 92.2432 12.3765 92.4216 13.0291C92.43 13.2063 92.4131 13.3813 92.3664 13.5477V13.5845L92.3749 13.5802L92.3792 13.5845ZM189.905 18.248C189.576 18.369 189.234 18.4619 188.893 18.5354C187.251 18.9525 184.687 18.1831 183.993 20.2102C183.993 20.4976 183.6 22.9698 183.683 23.2032C183.925 24.1173 185.025 24.381 185.85 24.381H188.19C188.595 24.3442 188.992 24.2318 189.362 24.0417C189.585 23.9358 189.782 23.7824 189.946 23.6008C190.101 23.4236 190.201 23.201 190.239 22.9698C190.284 22.6413 190.871 18.0275 190.895 17.8763C190.585 17.913 190.156 18.1183 189.905 18.2047V18.2458V18.248ZM196.06 13.5845L194.358 26.1249V26.3237C193.063 26.6263 191.732 26.7084 190.408 26.5658C189.948 26.5009 189.742 26.3475 189.892 25.6473C188.045 26.4361 186.038 26.7602 184.039 26.6025C182.876 26.6219 181.727 26.3756 180.669 25.8829C179.794 25.442 178.913 24.6079 179.051 23.5209L179.588 19.9811C179.612 19.7953 179.652 19.6137 179.708 19.4387C179.734 19.3371 179.775 19.2356 179.826 19.1361C179.877 19.0346 179.931 18.933 179.996 18.8336L180.156 18.6153C180.437 18.2717 180.767 17.9757 181.132 17.725C181.804 17.2842 182.543 16.9643 183.322 16.7698C184.664 16.3614 187.459 16.5472 188.869 16.5105C189.568 16.5191 190.252 16.2966 190.812 15.8752C190.995 15.7261 191.146 15.5359 191.246 15.3176C191.337 14.9891 191.405 14.6499 191.447 14.3063C191.467 14.1399 191.447 13.967 191.392 13.8092C191.337 13.6515 191.25 13.5024 191.137 13.377C190.394 12.5104 188.939 12.7265 187.922 12.7049C187.511 12.7049 187.1 12.7849 186.718 12.9362C185.66 13.2798 185.8 14.1528 184.734 14.0405H180.907V13.9346C180.926 13.7357 180.958 13.5391 181.007 13.3446C181.285 12.6401 181.797 12.0458 182.453 11.6741C183.799 10.8486 185.35 10.4251 186.924 10.4532C188.398 10.5137 191.974 10.2716 193.361 10.7168C193.93 10.8616 194.474 11.1015 194.971 11.4256C195.451 11.7282 195.828 12.1733 196.051 12.6963C196.087 12.7892 196.115 12.8821 196.128 12.9794C196.141 13.1696 196.128 13.3597 196.073 13.5456V13.5823L196.064 13.578L196.06 13.5845ZM67.7098 12.7179C66.3591 12.7179 64.3564 12.5839 64.0294 14.2393L62.7933 22.851C62.7742 22.9676 62.7742 23.0887 62.7933 23.2032C62.8295 23.3696 62.9038 23.5274 63.0036 23.6635C63.1034 23.8018 63.2309 23.9142 63.3774 23.9985C63.8425 24.2621 64.3712 24.3939 64.9065 24.3702C65.9598 24.3702 67.3466 24.5193 68.2173 23.7802C68.4 23.6462 68.5465 23.4647 68.6463 23.2615C68.6909 23.1557 68.7292 23.039 68.7504 22.9223L69.9864 14.2868V14.222C70.0905 12.9794 68.6358 12.6768 67.7098 12.6768V12.7179ZM70.8572 10.5288C71.6408 10.6217 72.4075 10.8529 73.1104 11.2203C73.3441 11.35 73.5628 11.4991 73.7731 11.6612C73.9514 11.806 74.1108 11.9724 74.2531 12.1582C74.4442 12.4046 74.5758 12.6877 74.6459 12.988C74.8328 13.1696 73.274 23.4279 73.223 23.7607C73.1784 23.9099 73.119 24.0525 73.0446 24.1929C72.2928 25.4744 70.9591 26.0169 69.6105 26.3821C67.5845 26.8424 64.1822 26.8791 62.4493 25.6949C62.4493 25.8937 61.7018 30.8316 61.6551 31.1644C61.2302 31.387 60.7652 31.5123 60.2873 31.5361C59.8138 31.5599 59.3338 31.4756 58.8921 31.2941C57.5456 30.7041 57.2823 29.4572 57.4692 27.9488L59.8775 10.8983V10.7038C60.9265 10.5418 61.9842 10.4575 63.044 10.4618C63.8106 10.5029 64.5497 10.4618 64.4158 11.4861C66.3782 10.3408 68.6846 10.3084 70.853 10.4877V10.5245H70.8614L70.8572 10.5288ZM171.327 12.7244C169.976 12.7244 167.978 12.5904 167.647 14.2458L166.411 22.8618C166.398 22.9785 166.398 23.093 166.411 23.2097C166.447 23.3761 166.52 23.5338 166.621 23.6743C166.721 23.8126 166.848 23.9293 166.994 24.0136C167.459 24.2729 167.988 24.3982 168.524 24.381C169.577 24.381 170.968 24.5344 171.835 23.791C172.017 23.6527 172.163 23.4755 172.263 23.2659C172.315 23.16 172.351 23.0476 172.368 22.9266L173.603 14.2911V14.2263C173.708 12.988 172.257 12.6855 171.327 12.6855V12.7222V12.7244ZM174.475 10.5353C175.264 10.6239 176.024 10.8594 176.727 11.2311C176.961 11.3565 177.18 11.5056 177.388 11.6676C177.571 11.8168 177.73 11.9832 177.868 12.169C178.06 12.4154 178.193 12.6985 178.261 12.9988C178.448 13.1804 176.889 23.4388 176.838 23.778C176.794 23.9271 176.734 24.0654 176.659 24.2059C175.908 25.4874 174.584 26.0298 173.226 26.395C172.053 26.6371 170.858 26.7235 169.662 26.6544C168.398 26.6868 167.154 26.3626 166.062 25.7078C166.034 25.9023 165.315 30.8403 165.268 31.1774C164.844 31.3956 164.378 31.521 163.901 31.5448C163.427 31.5685 162.947 31.4842 162.504 31.307C161.158 30.7171 160.895 29.4788 161.082 27.9618L163.494 10.9156L163.522 10.7211C164.572 10.5547 165.629 10.4748 166.689 10.4748C167.455 10.5158 168.194 10.4748 168.061 11.5099C169.991 10.3537 172.302 10.3213 174.455 10.4985L174.47 10.5353H174.475ZM200.909 26.5658C199.851 26.4642 198.837 26.0687 197.984 25.4334C197.806 25.2886 197.643 25.1222 197.506 24.9363C197.315 24.69 197.181 24.4069 197.114 24.1065C196.886 24.2362 198.213 15.7369 198.194 15.5964C198.372 14.3387 198.706 12.0199 198.878 10.7579C199.636 10.5763 200.412 10.5072 201.191 10.5482C201.456 10.5612 201.715 10.6087 201.962 10.693C202.066 10.7298 202.167 10.7708 202.268 10.8227C202.442 10.9199 202.593 11.0453 202.72 11.1944C202.788 11.2722 202.843 11.3521 202.898 11.4407C203.157 11.9594 203.228 12.558 203.089 13.1242C202.735 16.3527 202.236 19.564 201.781 22.7753C201.923 24.8348 205.211 24.5474 206.581 24.126C206.946 23.9963 207.276 23.7694 207.531 23.4712C207.677 23.2853 207.764 23.0584 207.781 22.8207C208.318 19.067 208.981 14.4921 209.505 10.7816C210.263 10.6001 211.039 10.5309 211.818 10.572C212.068 10.5915 212.315 10.6412 212.548 10.7254C212.653 10.7622 212.755 10.8032 212.854 10.8551C213.022 10.9523 213.178 11.0777 213.305 11.2268C213.369 11.3046 213.428 11.3889 213.483 11.4732C213.733 12.0069 213.797 12.6055 213.666 13.1804L212.262 23.7413C212.107 25.3923 211.693 27.0023 211.035 28.5193C210.167 30.1379 208.329 30.8813 206.631 31.2292C205.332 31.5491 203.521 31.4 202.185 31.3784C201.482 31.3308 199.726 31.3784 199.055 31.2292C198.886 31.2012 198.725 31.1687 198.586 31.1363C197.842 31.0153 197.175 30.6069 196.724 30.0039C196.272 29.401 196.068 28.6403 196.156 27.8883L200.093 27.9164C200.982 27.9164 200.471 28.1908 200.817 28.7008C201.743 29.5739 203.742 29.1503 204.846 28.9472C206.316 28.6403 207.186 27.0455 207.373 25.5695C206.678 25.9412 205.941 26.2243 205.18 26.4102C203.776 26.6457 202.342 26.6889 200.924 26.5355V26.5722L200.915 26.5679L200.909 26.5658ZM156.442 10.559C156.784 10.6001 157.117 10.6649 157.451 10.7579C157.807 10.8551 158.158 10.9848 158.491 11.1425C158.67 11.2268 158.837 11.324 159 11.4299C159.128 11.5142 159.247 11.6007 159.366 11.7044L159.448 11.7735C159.591 11.9183 159.723 12.0653 159.846 12.223C159.914 12.3116 159.973 12.4132 160.033 12.5018C160.084 12.5947 160.128 12.6877 160.164 12.7849C160.2 12.8778 160.228 12.9751 160.247 13.0723C160.267 13.1696 160.279 13.2668 160.284 13.3684C159.727 17.8374 159.007 22.2869 158.4 26.7451C158.253 26.7905 158.09 26.8467 157.963 26.8748C157.457 27.0044 156.932 27.0282 156.416 26.9547C156.221 26.9223 156.023 26.8748 155.832 26.8208C155.554 26.7235 155.295 26.5787 155.061 26.395C154.883 26.2502 154.727 26.0838 154.6 25.8937C154.532 25.7964 154.472 25.6992 154.422 25.5911C154.212 25.1135 154.152 24.5798 154.243 24.0654C154.696 20.8542 155.151 17.645 155.612 14.4338V14.397C155.627 14.2846 155.627 14.1744 155.612 14.0685C155.56 13.846 155.452 13.6471 155.301 13.4786C155.138 13.2927 154.936 13.1436 154.717 13.0421C154.59 12.9772 154.459 12.9297 154.32 12.8929C153.772 12.7763 153.207 12.7633 152.651 12.8562C152.376 12.9081 152.113 12.9902 151.857 13.0982C151.527 13.2366 151.24 13.4656 151.03 13.753C150.104 17.9649 149.813 22.3928 149.119 26.6846H144.549C145.133 22.6024 145.685 18.5224 146.269 14.4446C146.284 14.3322 146.284 14.222 146.269 14.1053C146.25 13.9929 146.218 13.887 146.169 13.7855C146.065 13.5758 145.904 13.3965 145.713 13.2603C145.617 13.1868 145.506 13.122 145.398 13.0702C145.021 12.8994 144.608 12.8152 144.194 12.8238C143.752 12.7676 143.304 12.8152 142.886 12.9578C142.465 13.1026 142.079 13.3381 141.758 13.6493C140.737 17.8395 140.59 22.3301 139.838 26.6349H135.121C135.879 21.3361 136.631 16.0372 137.379 10.7384C138.575 10.5893 139.783 10.5569 140.983 10.6325C141.526 10.6844 141.959 10.8551 142.104 11.4407C142.482 11.2419 142.876 11.069 143.272 10.9221C143.555 10.8205 143.847 10.7362 144.139 10.6757C145.188 10.4445 146.269 10.4121 147.327 10.5742C147.518 10.6023 147.719 10.6433 147.91 10.6909C148.101 10.7362 148.289 10.8032 148.467 10.8681C148.645 10.9329 148.817 11.0021 148.979 11.0777C149.516 11.3284 150.008 11.6763 150.425 12.102C151.315 11.3932 152.355 10.9048 153.464 10.6736C154.088 10.5396 154.727 10.4704 155.367 10.4748C155.732 10.4704 156.098 10.4834 156.463 10.5266L156.444 10.5634L156.442 10.559ZM130.588 10.559C131.167 10.4532 131.756 10.4143 132.343 10.4575C132.594 10.4812 132.836 10.5309 133.074 10.6109C133.179 10.6476 133.28 10.6887 133.38 10.7449C133.554 10.8378 133.704 10.9588 133.832 11.1123C133.896 11.1901 133.955 11.2743 134.006 11.3586C134.057 11.4515 134.102 11.5488 134.143 11.646C134.58 12.7741 133.444 18.0254 133.391 19.2874L132.418 26.3994L132.382 26.6219H127.784L127.824 26.3259L128.946 18.3495L130.007 10.8378V10.6563L130.588 10.5504V10.559ZM107.769 24.636C105.521 27.2443 101.128 26.5852 98.0814 26.6587C96.0511 26.6587 92.6977 25.8332 93.1586 23.1751C93.1586 23.026 93.3688 21.6775 93.373 21.5695H97.1129C98.213 21.5695 97.903 21.8979 97.7734 22.8639C97.663 24.0049 99.0371 24.4047 99.9485 24.3853C101.001 24.3853 102.412 24.5387 103.286 23.7953C103.465 23.657 103.609 23.4798 103.716 23.2767C103.843 23.1232 104.113 20.8261 104.168 20.5948V20.5667C104.04 18.4187 100.464 19.1837 99.0817 19.0497C97.9688 19.0735 96.8645 18.8401 95.8514 18.3733C94.9765 17.9195 94.0951 17.0551 94.214 16.0113C94.214 15.9702 94.4158 13.7379 94.4158 13.6968C94.488 13.3446 94.6303 13.0053 94.8299 12.7093C95.0316 12.4132 95.2865 12.1517 95.5881 11.9572C97.0025 10.9588 98.6909 10.4445 100.416 10.4856C102.596 10.5698 105.975 10.0815 107.87 11.4126C107.997 11.4969 108.125 11.5899 108.239 11.6763C108.509 11.8946 108.736 12.1582 108.914 12.4607C109.07 12.7071 109.156 12.9902 109.169 13.2819C109.184 13.5737 109.123 13.8611 108.995 14.1269H105.223C104.43 14.1269 104.608 14.034 104.246 13.4678C104.013 13.2085 103.73 13.0032 103.408 12.8778C103.089 12.7482 102.741 12.6963 102.395 12.7244C101.337 12.6877 100.018 12.7244 99.2919 13.6147C98.9585 13.8784 98.9372 14.7558 98.8629 15.1404C98.6994 16.2404 99.7055 16.5645 100.989 16.5408C102.562 16.5775 104.966 16.3636 106.449 16.9492L106.616 17.014C107.428 17.2885 108.123 17.8266 108.596 18.5397C109.18 19.3242 108.354 22.4879 108.322 23.4993C108.226 23.9034 108.039 24.2794 107.765 24.5906V24.6316L107.769 24.636Z" fill="#1843BF"/>
<path fill-rule="evenodd" clip-rule="evenodd" d="M214.53 25.2216C214.53 24.355 215.259 23.616 216.133 23.616C217.008 23.616 217.717 24.355 217.717 25.2216C217.717 26.0882 216.99 26.8445 216.133 26.8445C215.278 26.8445 214.53 26.1055 214.53 25.2216Z" fill="#1843BF"/>
<path fill-rule="evenodd" clip-rule="evenodd" d="M218.92 15.0021C218.92 14.1161 219.648 13.3792 220.505 13.3792C221.36 13.3792 222.108 14.1183 222.108 15.0021C222.108 15.886 221.379 16.625 220.505 16.625C219.629 16.625 218.92 15.886 218.92 15.0021ZM219.12 17.3447H221.906V26.6436H219.12V17.3447Z" fill="#1843BF"/>
<path fill-rule="evenodd" clip-rule="evenodd" d="M223.713 23.026V20.8671C223.713 17.9713 225.48 17.0853 228.85 17.0853C232.221 17.0853 233.988 17.9713 233.988 20.8671V23.026C233.988 25.9218 232.165 26.7905 228.867 26.7905C225.569 26.7905 223.711 25.9239 223.711 23.026H223.713ZM231.218 23.026V20.8671C231.218 19.4841 230.618 18.7817 228.867 18.7817C227.118 18.7817 226.499 19.4819 226.499 20.8671V23.026C226.499 24.3918 227.101 25.0919 228.867 25.0919C230.635 25.0919 231.218 24.3918 231.218 23.026Z" fill="#1843BF"/>
<path d="M214.53 25.2216C214.53 24.355 215.259 23.616 216.133 23.616C217.008 23.616 217.717 24.355 217.717 25.2216C217.717 26.0882 216.99 26.8445 216.133 26.8445C215.278 26.8445 214.53 26.1055 214.53 25.2216Z" fill="#1843BF"/>
<path d="M218.92 15.0021C218.92 14.1161 219.648 13.3792 220.505 13.3792C221.36 13.3792 222.108 14.1183 222.108 15.0021C222.108 15.886 221.379 16.625 220.505 16.625C219.629 16.625 218.92 15.886 218.92 15.0021ZM219.12 17.3447H221.906V26.6436H219.12V17.3447Z" fill="#1843BF"/>
<path d="M223.713 23.026V20.8671C223.713 17.9713 225.48 17.0853 228.85 17.0853C232.221 17.0853 233.988 17.9713 233.988 20.8671V23.026C233.988 25.9218 232.165 26.7905 228.867 26.7905C225.569 26.7905 223.711 25.9239 223.711 23.026H223.713ZM231.218 23.026V20.8671C231.218 19.4841 230.618 18.7817 228.867 18.7817C227.118 18.7817 226.499 19.4819 226.499 20.8671V23.026C226.499 24.3918 227.101 25.0919 228.867 25.0919C230.635 25.0919 231.218 24.3918 231.218 23.026Z" fill="#1843BF"/>
<path fill-rule="evenodd" clip-rule="evenodd" d="M134.677 9.01378H130.112L130.568 5.78088H135.121L134.679 9.01378H134.677Z" fill="#FF6600"/>
<path d="M61.9207 41.9416H60.5615L60.0879 40.7228H57.7158L57.2506 41.9416H55.9339L58.2552 36.1868H59.5888L61.9185 41.9416H61.9207ZM58.8986 37.6563L58.1298 39.6487H59.6653L58.8965 37.6563H58.8986Z" fill="#1A75E2"/>
<path d="M66.4782 39.6141H67.7185C67.6293 40.3251 67.3234 40.9108 66.8031 41.3711C66.2828 41.8314 65.6351 42.0626 64.8578 42.0626C63.9913 42.0626 63.2883 41.7752 62.7468 41.1982C62.2074 40.6233 61.9356 39.9145 61.9356 39.0717C61.9356 38.2289 62.2053 37.5093 62.7468 36.928C63.2862 36.3467 63.9913 36.0571 64.8578 36.0571C65.6118 36.0571 66.2489 36.284 66.7692 36.7357C67.2895 37.1873 67.6017 37.76 67.7015 38.4537H66.4527C66.3572 38.0928 66.166 37.8032 65.8836 37.5828C65.599 37.3624 65.255 37.2543 64.8493 37.2608C64.3439 37.2673 63.934 37.4423 63.6261 37.7881C63.316 38.1338 63.161 38.5596 63.161 39.0631C63.161 39.5666 63.316 39.9945 63.6261 40.3424C63.9361 40.6925 64.3481 40.8654 64.8663 40.8654C65.2762 40.8654 65.6266 40.7508 65.9176 40.5218C66.2064 40.2927 66.3954 39.9902 66.4782 39.612V39.6141Z" fill="#1A75E2"/>
<path d="M72.758 39.6141H73.9983C73.9091 40.3251 73.6032 40.9108 73.0829 41.3711C72.5626 41.8314 71.9149 42.0626 71.1376 42.0626C70.2712 42.0626 69.5681 41.7752 69.0266 41.1982C68.4872 40.6233 68.2154 39.9145 68.2154 39.0717C68.2154 38.2289 68.4851 37.5093 69.0266 36.928C69.566 36.3467 70.2712 36.0571 71.1376 36.0571C71.8916 36.0571 72.5287 36.284 73.049 36.7357C73.5693 37.1873 73.8815 37.76 73.9813 38.4537H72.7325C72.637 38.0928 72.4458 37.8032 72.1634 37.5828C71.8788 37.3624 71.5348 37.2543 71.1291 37.2608C70.6237 37.2673 70.2138 37.4423 69.9059 37.7881C69.5958 38.1338 69.4408 38.5596 69.4408 39.0631C69.4408 39.5666 69.5958 39.9945 69.9059 40.3424C70.2159 40.6925 70.6279 40.8654 71.1461 40.8654C71.556 40.8654 71.9064 40.7508 72.1974 40.5218C72.4862 40.2927 72.6752 39.9902 72.758 39.612V39.6141Z" fill="#1A75E2"/>
<path d="M79.0804 41.9416H74.7502V36.1868H79.0804V37.3732H75.948V38.4472H78.7173V39.5817H75.948V40.7573H79.0804V41.9437V41.9416Z" fill="#1A75E2"/>
<path d="M82.829 36.1868C83.3854 36.1868 83.8526 36.3748 84.2307 36.7486C84.6066 37.1247 84.7956 37.5958 84.7956 38.1619C84.7956 38.7281 84.6066 39.2144 84.2264 39.5839C83.8462 39.9534 83.3812 40.1371 82.829 40.1371H81.1916V41.9416H79.9938V36.1868H82.829ZM81.1916 38.9788H82.7355C82.9777 38.9788 83.1794 38.9053 83.3387 38.7562C83.5001 38.6071 83.5786 38.4105 83.5786 38.1641C83.5786 37.935 83.498 37.747 83.3345 37.5979C83.1709 37.4488 82.9713 37.3753 82.7355 37.3753H81.1916V38.981V38.9788Z" fill="#1A75E2"/>
<path d="M85.0566 36.1868H90.0537V37.3732H88.1552V41.9416H86.9489V37.3732H85.0587V36.1868H85.0566Z" fill="#1A75E2"/>
<path d="M96.8986 39.6141H98.1389C98.0497 40.3251 97.7439 40.9108 97.2235 41.3711C96.7032 41.8314 96.0555 42.0626 95.2783 42.0626C94.4117 42.0626 93.7088 41.7752 93.1672 41.1982C92.6278 40.6233 92.356 39.9145 92.356 39.0717C92.356 38.2289 92.6257 37.5093 93.1672 36.928C93.7066 36.3467 94.4117 36.0571 95.2783 36.0571C96.0322 36.0571 96.6693 36.284 97.1896 36.7357C97.7099 37.1873 98.022 37.76 98.1219 38.4537H96.8731C96.7776 38.0928 96.5864 37.8032 96.304 37.5828C96.0194 37.3624 95.6754 37.2543 95.2697 37.2608C94.7643 37.2673 94.3544 37.4423 94.0465 37.7881C93.7364 38.1338 93.5814 38.5596 93.5814 39.0631C93.5814 39.5666 93.7364 39.9945 94.0465 40.3424C94.3565 40.6925 94.7685 40.8654 95.2867 40.8654C95.6966 40.8654 96.047 40.7508 96.338 40.5218C96.6268 40.2927 96.8159 39.9902 96.8986 39.612V39.6141Z" fill="#1A75E2"/>
<path d="M100.091 41.9416H98.8928V36.1868H101.788C102.373 36.1868 102.843 36.3272 103.202 36.6082C103.558 36.8891 103.737 37.2846 103.737 37.7946C103.737 38.3046 103.552 38.7303 103.181 39.0047V39.0307C103.642 39.1517 103.873 39.5083 103.873 40.1047V41.9437H102.675V40.3295C102.675 40.1004 102.556 39.9858 102.32 39.9858H100.093V41.9437L100.091 41.9416ZM100.091 37.3732V38.8772H101.694C101.947 38.8772 102.15 38.8103 102.306 38.6763C102.461 38.5423 102.538 38.3564 102.538 38.123C102.538 37.8897 102.459 37.7125 102.302 37.5785C102.144 37.4445 101.945 37.3775 101.702 37.3775H100.091V37.3732Z" fill="#1A75E2"/>
<path d="M108.218 36.1868H109.578L107.315 39.7179V41.9416H106.118V39.7265L103.856 36.1868H105.241L106.734 38.592L108.22 36.1868H108.218Z" fill="#1A75E2"/>
<path d="M112.861 36.1868C113.417 36.1868 113.884 36.3748 114.263 36.7486C114.638 37.1247 114.827 37.5958 114.827 38.1619C114.827 38.7281 114.638 39.2144 114.258 39.5839C113.877 39.9534 113.412 40.1371 112.861 40.1371H111.224V41.9416H110.026V36.1868H112.861ZM111.224 38.9788H112.767C113.009 38.9788 113.211 38.9053 113.371 38.7562C113.53 38.6071 113.611 38.4105 113.611 38.1641C113.611 37.935 113.53 37.747 113.366 37.5979C113.202 37.4488 113.003 37.3753 112.767 37.3753H111.224V38.981V38.9788Z" fill="#1A75E2"/>
<path d="M115.088 36.1868H120.085V37.3732H118.187V41.9416H116.98V37.3732H115.09V36.1868H115.088Z" fill="#1A75E2"/>
<path d="M125.34 41.2003C124.792 41.7752 124.072 42.0648 123.182 42.0648C122.292 42.0648 121.575 41.7773 121.024 41.2003C120.477 40.6255 120.201 39.9167 120.201 39.0739C120.201 38.2311 120.477 37.5201 121.028 36.9345C121.581 36.351 122.297 36.0593 123.18 36.0593C124.063 36.0593 124.781 36.351 125.334 36.9345C125.886 37.518 126.159 38.2311 126.159 39.0739C126.159 39.9167 125.886 40.6234 125.336 41.2003H125.34ZM121.907 40.3424C122.228 40.6947 122.653 40.8719 123.182 40.8719C123.711 40.8719 124.136 40.6968 124.457 40.3489C124.777 39.9988 124.939 39.5731 124.939 39.0696C124.939 38.5661 124.777 38.1382 124.457 37.7902C124.136 37.4402 123.711 37.2673 123.182 37.2673C122.653 37.2673 122.228 37.4423 121.907 37.7902C121.587 38.1403 121.427 38.5661 121.427 39.0696C121.427 39.5731 121.587 39.9923 121.907 40.3446V40.3424Z" fill="#1A75E2"/>
<path d="M131.237 39.6141H132.478C132.388 40.3251 132.082 40.9108 131.563 41.3711C131.042 41.8314 130.394 42.0626 129.617 42.0626C128.75 42.0626 128.047 41.7752 127.506 41.1982C126.966 40.6233 126.694 39.9145 126.694 39.0717C126.694 38.2289 126.964 37.5093 127.506 36.928C128.045 36.3467 128.75 36.0571 129.617 36.0571C130.371 36.0571 131.008 36.284 131.529 36.7357C132.048 37.1873 132.361 37.76 132.461 38.4537H131.212C131.116 38.0928 130.925 37.8032 130.642 37.5828C130.358 37.3624 130.014 37.2543 129.609 37.2608C129.103 37.2673 128.693 37.4423 128.385 37.7881C128.077 38.1338 127.92 38.5596 127.92 39.0631C127.92 39.5666 128.075 39.9945 128.385 40.3424C128.695 40.6903 129.109 40.8654 129.626 40.8654C130.035 40.8654 130.386 40.7508 130.676 40.5218C130.968 40.2927 131.154 39.9902 131.237 39.612V39.6141Z" fill="#1A75E2"/>
<path d="M133.145 39.478V36.1889H134.351V39.4607C134.351 39.8843 134.467 40.2322 134.701 40.5045C134.935 40.7768 135.251 40.9129 135.65 40.9129C136.05 40.9129 136.375 40.7768 136.608 40.5045C136.842 40.2322 136.959 39.8843 136.959 39.4607V36.1889H138.157V39.478C138.157 40.2733 137.93 40.9086 137.477 41.384C137.024 41.8595 136.415 42.0972 135.65 42.0972C134.886 42.0972 134.283 41.8595 133.828 41.384C133.374 40.9086 133.145 40.2733 133.145 39.478Z" fill="#1A75E2"/>
<path d="M140.352 41.9416H139.154V36.1868H142.049C142.636 36.1868 143.105 36.3272 143.464 36.6082C143.821 36.8891 143.999 37.2846 143.999 37.7946C143.999 38.3046 143.815 38.7303 143.442 39.0047V39.0307C143.903 39.1517 144.135 39.5083 144.135 40.1047V41.9437H142.937V40.3295C142.937 40.1004 142.818 39.9858 142.583 39.9858H140.354V41.9437L140.352 41.9416ZM140.352 37.3732V38.8772H141.955C142.208 38.8772 142.413 38.8103 142.568 38.6763C142.722 38.5423 142.799 38.3564 142.799 38.123C142.799 37.8897 142.72 37.7125 142.563 37.5785C142.407 37.4445 142.206 37.3775 141.964 37.3775H140.352V37.3732Z" fill="#1A75E2"/>
<path d="M146.295 41.9416H145.097V36.1868H147.992C148.577 36.1868 149.047 36.3272 149.406 36.6082C149.762 36.8891 149.941 37.2846 149.941 37.7946C149.941 38.3046 149.756 38.7303 149.385 39.0047V39.0307C149.845 39.1517 150.077 39.5083 150.077 40.1047V41.9437H148.879V40.3295C148.879 40.1004 148.761 39.9858 148.525 39.9858H146.297V41.9437L146.295 41.9416ZM146.295 37.3732V38.8772H147.898C148.151 38.8772 148.354 38.8103 148.51 38.6763C148.665 38.5423 148.741 38.3564 148.741 38.123C148.741 37.8897 148.663 37.7125 148.506 37.5785C148.348 37.4445 148.148 37.3775 147.906 37.3775H146.295V37.3732Z" fill="#1A75E2"/>
<path d="M155.37 41.9416H151.039V36.1868H155.37V37.3732H152.237V38.4472H155.006V39.5817H152.237V40.7573H155.37V41.9437V41.9416Z" fill="#1A75E2"/>
<path d="M160.375 39.9664V36.1868H161.572V41.9416H160.375L157.481 37.9307V41.9416H156.283V36.1868H157.65L160.377 39.9664H160.375Z" fill="#1A75E2"/>
<path d="M166.882 39.6141H168.123C168.033 40.3251 167.727 40.9108 167.207 41.3711C166.687 41.8314 166.039 42.0626 165.262 42.0626C164.395 42.0626 163.692 41.7752 163.151 41.1982C162.611 40.6233 162.339 39.9145 162.339 39.0717C162.339 38.2289 162.609 37.5093 163.151 36.928C163.69 36.3467 164.395 36.0571 165.262 36.0571C166.016 36.0571 166.653 36.284 167.173 36.7357C167.693 37.1873 168.005 37.76 168.106 38.4537H166.857C166.761 38.0928 166.57 37.8032 166.287 37.5828C166.003 37.3624 165.659 37.2543 165.253 37.2608C164.748 37.2673 164.338 37.4423 164.03 37.7881C163.722 38.1338 163.565 38.5596 163.565 39.0631C163.565 39.5666 163.72 39.9945 164.03 40.3424C164.34 40.6903 164.754 40.8654 165.271 40.8654C165.68 40.8654 166.03 40.7508 166.321 40.5218C166.612 40.2927 166.799 39.9902 166.882 39.612V39.6141Z" fill="#1A75E2"/>
<path d="M172.183 36.1868H173.543L171.28 39.7179V41.9416H170.082V39.7265L167.821 36.1868H169.206L170.701 38.592L172.187 36.1868H172.183Z" fill="#1A75E2"/>
<path d="M180.557 41.9416H176.226V36.1868H180.557V37.3732H177.424V38.4472H180.193V39.5817H177.424V40.7573H180.557V41.9437V41.9416Z" fill="#1A75E2"/>
<path d="M183.874 40.4397L185.58 36.1889H186.862L184.507 41.9437H183.199L180.852 36.1889H182.152L183.874 40.4397Z" fill="#1A75E2"/>
<path d="M191.641 41.9416H187.31V36.1868H191.641V37.3732H188.508V38.4472H191.277V39.5817H188.508V40.7573H191.641V41.9437V41.9416Z" fill="#1A75E2"/>
<path d="M193.75 41.9416H192.552V36.1868H195.447C196.032 36.1868 196.502 36.3272 196.861 36.6082C197.217 36.8891 197.396 37.2846 197.396 37.7946C197.396 38.3046 197.211 38.7303 196.84 39.0047V39.0307C197.3 39.1517 197.532 39.5083 197.532 40.1047V41.9437H196.334V40.3295C196.334 40.1004 196.216 39.9858 195.98 39.9858H193.752V41.9437L193.75 41.9416ZM193.75 37.3732V38.8772H195.353C195.606 38.8772 195.809 38.8103 195.965 38.6763C196.12 38.5423 196.196 38.3564 196.196 38.123C196.196 37.8897 196.118 37.7125 195.961 37.5785C195.803 37.4445 195.603 37.3775 195.361 37.3775H193.75V37.3732Z" fill="#1A75E2"/>
<path d="M201.88 36.1868H203.239L200.976 39.7179V41.9416H199.778V39.7265L197.517 36.1868H198.902L200.397 38.592L201.884 36.1868H201.88Z" fill="#1A75E2"/>
<path d="M208.993 40.0096L210.058 36.1868H211.349L209.728 41.9416H208.386L207.39 38.283L206.385 41.9416H205.043L203.423 36.1868H204.706L205.778 40.0183L206.809 36.1868H207.966L208.995 40.0096H208.993Z" fill="#1A75E2"/>
<path d="M215.799 38.4126V36.1889H217.005V41.9437H215.799V39.599H213.139V41.9437H211.942V36.1889H213.139V38.4126H215.799Z" fill="#1A75E2"/>
<path d="M222.458 41.9416H218.128V36.1868H222.458V37.3732H219.326V38.4472H222.095V39.5817H219.326V40.7573H222.458V41.9437V41.9416Z" fill="#1A75E2"/>
<path d="M224.567 41.9416H223.37V36.1868H226.264C226.85 36.1868 227.32 36.3272 227.678 36.6082C228.035 36.8891 228.213 37.2846 228.213 37.7946C228.213 38.3046 228.029 38.7303 227.657 39.0047V39.0307C228.117 39.1517 228.349 39.5083 228.349 40.1047V41.9437H227.151V40.3295C227.151 40.1004 227.033 39.9858 226.797 39.9858H224.569V41.9437L224.567 41.9416ZM224.567 37.3732V38.8772H226.171C226.424 38.8772 226.627 38.8103 226.782 38.6763C226.937 38.5423 227.013 38.3564 227.013 38.123C227.013 37.8897 226.935 37.7125 226.778 37.5785C226.621 37.4445 226.421 37.3775 226.179 37.3775H224.567V37.3732Z" fill="#1A75E2"/>
<path d="M233.642 41.9416H229.311V36.1868H233.642V37.3732H230.509V38.4472H233.279V39.5817H230.509V40.7573H233.642V41.9437V41.9416Z" fill="#1A75E2"/>
</svg>
