<svg width="237" height="44" viewBox="0 0 237 44" fill="none" xmlns="http://www.w3.org/2000/svg">
<path d="M1.35303 20.8282L12.4475 7.63302H21.8145L10.72 20.8326H1.35303V20.8282ZM8.46783 31.9316L24.6979 12.625C25.8944 11.136 27.2274 9.76595 28.6798 8.53201C30.3838 7.11222 32.3758 6.08141 34.5256 5.52602C37.3109 4.78911 40.252 4.86259 43.0011 5.73564C45.7225 6.59357 48.0941 8.31158 49.7768 10.6217C51.9117 13.6558 52.8095 17.3901 52.2827 21.066C52.0396 22.8747 51.4446 24.6252 50.5275 26.2027C49.6062 27.7803 48.3884 29.159 46.9317 30.2633C45.2682 31.4972 43.3445 32.3379 41.3056 32.7096C40.156 32.9516 38.983 33.0856 37.8057 33.0985H33.2289L24.9368 42.9809H15.5954L28.8653 27.173L29.9509 25.8786H36.1166C38.2835 25.8786 40.574 25.8786 42.4466 24.6576H42.4828C43.3615 24.0503 44.0866 23.2378 44.5942 22.2913C45.1018 21.3447 45.377 20.2966 45.4047 19.2248C45.4281 18.1529 45.1978 17.0897 44.735 16.1215C44.2722 15.1556 43.5855 14.3128 42.7324 13.6623L42.6407 13.5975L42.5895 13.5607L42.5212 13.5089C41.4485 12.7525 40.1795 12.3268 38.87 12.2879H38.7975C37.9508 12.2511 37.1019 12.3397 36.283 12.5515C35.1377 12.8584 34.0713 13.4138 33.1585 14.1853C32.0495 15.1447 31.0322 16.2036 30.1172 17.349L17.7858 32.0116L8.46783 31.9467L8.46357 31.9338L8.46783 31.9316Z" fill="#FF6600"/>
<path fill-rule="evenodd" clip-rule="evenodd" d="M125.63 24.5949C123.38 27.1968 118.961 26.5441 115.904 26.6176C113.861 26.6176 110.5 25.7878 110.956 23.134C110.956 22.9849 111.172 21.6365 111.18 21.5284H114.936C116.041 21.5284 115.729 21.8569 115.595 22.8272C115.491 23.9596 116.864 24.3637 117.779 24.3442C118.841 24.3442 120.257 24.4977 121.132 23.7543C121.315 23.6203 121.462 23.4388 121.562 23.2356C121.69 23.0822 121.961 20.785 122.017 20.5538V20.5257C121.912 18.3863 118.282 19.1383 116.917 19.0086C115.8 19.0324 114.691 18.799 113.674 18.3322C112.795 17.8828 111.91 17.0248 112.025 15.9702C112.025 15.9292 112.232 13.6925 112.232 13.6558C112.304 13.3035 112.447 12.9643 112.648 12.6682C112.848 12.3721 113.106 12.1107 113.409 11.9162C115.672 10.0512 119.391 10.4834 122.121 10.4445C123.39 10.4034 124.646 10.7233 125.741 11.3629C125.868 11.4472 125.988 11.5401 126.107 11.6374C126.378 11.8557 126.611 12.1193 126.79 12.4175C126.946 12.6682 127.033 12.9513 127.046 13.243C127.059 13.5348 126.995 13.8287 126.867 14.088H123.079C122.281 14.088 122.492 13.9951 122.098 13.4289C121.87 13.1696 121.58 12.9643 121.26 12.8389C120.94 12.7093 120.59 12.6574 120.247 12.6855C119.178 12.6488 117.86 12.6855 117.126 13.5758C116.792 13.8352 116.768 14.7169 116.696 15.1015C116.531 16.2015 117.542 16.5256 118.83 16.5019C120.411 16.5386 122.825 16.3247 124.305 16.9103L124.484 16.9751C124.484 16.9751 126.041 17.7358 126.472 18.4878C127.059 19.2723 126.237 22.4404 126.201 23.4517C126.118 23.8882 125.926 24.2924 125.642 24.6295V24.5927H125.623L125.63 24.5949ZM86.592 18.2436C86.2615 18.369 85.9266 18.4662 85.579 18.5311C83.9581 18.9589 81.3604 18.1594 80.6588 20.2015C80.6588 20.489 80.2599 22.9612 80.3474 23.1989C80.582 24.1087 81.6846 24.3766 82.5228 24.3766H84.873C85.2719 24.3356 85.66 24.2189 86.0183 24.033C86.2423 23.9271 86.4449 23.778 86.6048 23.5922C86.7605 23.415 86.865 23.1989 86.9034 22.9655C86.9439 22.637 87.5347 18.0189 87.5539 17.8719C87.2702 17.913 86.8437 18.114 86.5835 18.2004V18.2372L86.592 18.2415V18.2436ZM92.7706 13.5845L91.0473 26.1638V26.3583C89.7463 26.6652 88.4091 26.7473 87.0804 26.6003C86.6219 26.5355 86.415 26.3821 86.5664 25.6819C84.7109 26.475 82.6955 26.8056 80.6886 26.6414C79.5199 26.6565 78.3661 26.4102 77.3082 25.9174C76.4295 25.4809 75.5445 24.6424 75.6724 23.5554C75.6724 23.5554 76.2184 20.0157 76.212 20.0157C76.2312 19.8298 76.2674 19.6483 76.3229 19.4733C76.3549 19.3717 76.3911 19.2701 76.4423 19.1707C76.4935 19.0692 76.5468 18.9719 76.6108 18.8747C76.662 18.8012 76.7111 18.7299 76.7708 18.6607C77.0502 18.3128 77.3807 18.0103 77.7518 17.7704C78.4258 17.3295 79.1616 17.0097 79.9422 16.8195C81.2879 16.4068 84.0967 16.5969 85.5129 16.5559C86.2188 16.5753 86.9055 16.3463 87.4643 15.9205C87.6563 15.7758 87.8077 15.5856 87.9037 15.363C87.9911 15.0345 88.0593 14.6996 88.1041 14.3603C88.1233 14.1939 88.1041 14.021 88.0487 13.8632C87.9932 13.7055 87.9122 13.5564 87.797 13.431C87.0463 12.558 85.579 12.7806 84.5574 12.759C84.1458 12.759 83.732 12.8324 83.3481 12.9815C82.286 13.3295 82.4268 14.2025 81.3604 14.0902H77.513V13.9843C77.5258 13.7855 77.5578 13.5845 77.6132 13.3943C77.8926 12.6898 78.4066 12.0999 79.0656 11.7238C80.4178 10.9026 81.9746 10.4812 83.555 10.5072C85.0437 10.559 88.6267 10.3257 90.0193 10.7665C90.593 10.9156 91.1369 11.1512 91.6359 11.4753C92.2139 11.8232 92.6341 12.3765 92.8132 13.0291C92.8217 13.2063 92.8047 13.3813 92.7578 13.5477V13.5845L92.7663 13.5802L92.7706 13.5845ZM190.71 18.248C190.379 18.369 190.036 18.4619 189.693 18.5354C188.044 18.9525 185.47 18.1831 184.773 20.2102C184.773 20.4976 184.378 22.9698 184.461 23.2032C184.704 24.1173 185.809 24.381 186.637 24.381H188.987C189.394 24.3442 189.793 24.2318 190.164 24.0417C190.388 23.9358 190.586 23.7824 190.751 23.6008C190.906 23.4236 191.007 23.201 191.045 22.9698C191.09 22.6413 191.68 18.0275 191.704 17.8763C191.393 17.913 190.962 18.1183 190.71 18.2047V18.2458V18.248ZM196.891 13.5845L195.182 26.1249V26.3237C193.881 26.6263 192.544 26.7084 191.215 26.5658C190.753 26.5009 190.546 26.3475 190.697 25.6473C188.842 26.4361 186.826 26.7602 184.819 26.6025C183.651 26.6219 182.497 26.3756 181.435 25.8829C180.556 25.442 179.671 24.6079 179.81 23.5209L180.349 19.9811C180.373 19.7953 180.413 19.6137 180.469 19.4387C180.496 19.3371 180.537 19.2356 180.588 19.1361C180.639 19.0346 180.693 18.933 180.759 18.8336L180.919 18.6153C181.202 18.2717 181.533 17.9757 181.9 17.725C182.574 17.2842 183.316 16.9643 184.099 16.7698C185.446 16.3614 188.253 16.5472 189.669 16.5105C190.371 16.5191 191.058 16.2966 191.621 15.8752C191.804 15.7261 191.956 15.5359 192.056 15.3176C192.148 14.9891 192.216 14.6499 192.258 14.3063C192.278 14.1399 192.258 13.967 192.203 13.8092C192.148 13.6515 192.06 13.5024 191.947 13.377C191.201 12.5104 189.74 12.7265 188.718 12.7049C188.306 12.7049 187.893 12.7849 187.509 12.9362C186.447 13.2798 186.587 14.1528 185.517 14.0405H181.674V13.9346C181.693 13.7357 181.725 13.5391 181.774 13.3446C182.053 12.6401 182.567 12.0458 183.226 11.6741C184.578 10.8486 186.135 10.4251 187.716 10.4532C189.196 10.5137 192.787 10.2716 194.18 10.7168C194.752 10.8616 195.298 11.1015 195.797 11.4256C196.279 11.7282 196.658 12.1733 196.882 12.6963C196.918 12.7892 196.946 12.8821 196.959 12.9794C196.972 13.1696 196.959 13.3597 196.904 13.5456V13.5823L196.895 13.578L196.891 13.5845ZM67.9967 12.7179C66.6403 12.7179 64.6291 12.5839 64.3007 14.2393L63.0594 22.851C63.0402 22.9676 63.0402 23.0887 63.0594 23.2032C63.0957 23.3696 63.1703 23.5274 63.2706 23.6635C63.3708 23.8018 63.4988 23.9142 63.6459 23.9985C64.113 24.2621 64.644 24.3939 65.1815 24.3702C66.2393 24.3702 67.632 24.5193 68.5064 23.7802C68.6898 23.6462 68.837 23.4647 68.9372 23.2615C68.982 23.1557 69.0204 23.039 69.0417 22.9223L70.283 14.2868V14.222C70.3875 12.9794 68.9266 12.6768 67.9967 12.6768V12.7179ZM71.1574 10.5288C71.9444 10.6217 72.7143 10.8529 73.4202 11.2203C73.6549 11.35 73.8745 11.4991 74.0857 11.6612C74.2648 11.806 74.4248 11.9724 74.5677 12.1582C74.7596 12.4046 74.8918 12.6877 74.9622 12.988C75.1499 13.1696 73.5845 23.4279 73.5333 23.7607C73.4885 23.9099 73.4288 24.0525 73.3541 24.1929C72.5991 25.4744 71.2598 26.0169 69.9055 26.3821C67.8709 26.8424 64.4542 26.8791 62.7139 25.6949C62.7139 25.8937 61.9632 30.8316 61.9163 31.1644C61.4897 31.387 61.0227 31.5123 60.5428 31.5361C60.0672 31.5599 59.5852 31.4756 59.1416 31.2941C57.7894 30.7041 57.525 29.4572 57.7127 27.9488L60.1312 10.8983V10.7038C61.1847 10.5418 62.2468 10.4575 63.3111 10.4618C64.081 10.5029 64.8232 10.4618 64.6888 11.4861C66.6595 10.3408 68.9756 10.3084 71.1532 10.4877V10.5245H71.1617L71.1574 10.5288ZM172.053 12.7244C170.696 12.7244 168.69 12.5904 168.357 14.2458L167.116 22.8618C167.103 22.9785 167.103 23.093 167.116 23.2097C167.152 23.3761 167.226 23.5338 167.327 23.6743C167.427 23.8126 167.555 23.9293 167.702 24.0136C168.169 24.2729 168.7 24.3982 169.238 24.381C170.296 24.381 171.692 24.5344 172.563 23.791C172.746 23.6527 172.893 23.4755 172.993 23.2659C173.045 23.16 173.081 23.0476 173.098 22.9266L174.339 14.2911V14.2263C174.444 12.988 172.987 12.6855 172.053 12.6855V12.7222V12.7244ZM175.214 10.5353C176.007 10.6239 176.77 10.8594 177.476 11.2311C177.711 11.3565 177.931 11.5056 178.14 11.6676C178.323 11.8168 178.483 11.9832 178.622 12.169C178.814 12.4154 178.948 12.6985 179.016 12.9988C179.204 13.1804 177.639 23.4388 177.587 23.778C177.543 23.9271 177.483 24.0654 177.408 24.2059C176.653 25.4874 175.324 26.0298 173.96 26.395C172.782 26.6371 171.582 26.7235 170.381 26.6544C169.112 26.6868 167.862 26.3626 166.766 25.7078C166.738 25.9023 166.015 30.8403 165.968 31.1774C165.542 31.3956 165.075 31.521 164.595 31.5448C164.119 31.5685 163.637 31.4842 163.193 31.307C161.841 30.7171 161.577 29.4788 161.765 27.9618L164.187 10.9156L164.215 10.7211C165.269 10.5547 166.331 10.4748 167.395 10.4748C168.165 10.5158 168.907 10.4748 168.773 11.5099C170.711 10.3537 173.032 10.3213 175.194 10.4985L175.209 10.5353H175.214ZM201.76 26.5658C200.698 26.4642 199.68 26.0687 198.823 25.4334C198.644 25.2886 198.48 25.1222 198.343 24.9363C198.151 24.69 198.017 24.4069 197.949 24.1065C197.72 24.2362 199.053 15.7369 199.034 15.5964C199.213 14.3387 199.548 12.0199 199.721 10.7579C200.482 10.5763 201.261 10.5072 202.043 10.5482C202.31 10.5612 202.57 10.6087 202.818 10.693C202.922 10.7298 203.024 10.7708 203.125 10.8227C203.3 10.9199 203.451 11.0453 203.579 11.1944C203.647 11.2722 203.703 11.3521 203.758 11.4407C204.018 11.9594 204.089 12.558 203.95 13.1242C203.594 16.3527 203.093 19.564 202.636 22.7753C202.779 24.8348 206.081 24.5474 207.456 24.126C207.823 23.9963 208.154 23.7694 208.41 23.4712C208.557 23.2853 208.644 23.0584 208.661 22.8207C209.201 19.067 209.866 14.4921 210.393 10.7816C211.154 10.6001 211.933 10.5309 212.716 10.572C212.967 10.5915 213.215 10.6412 213.449 10.7254C213.554 10.7622 213.656 10.8032 213.756 10.8551C213.925 10.9523 214.081 11.0777 214.209 11.2268C214.273 11.3046 214.332 11.3889 214.388 11.4732C214.639 12.0069 214.703 12.6055 214.571 13.1804L213.161 23.7413C213.006 25.3923 212.59 27.0023 211.929 28.5193C211.058 30.1379 209.212 30.8813 207.507 31.2292C206.202 31.5491 204.383 31.4 203.042 31.3784C202.336 31.3308 200.572 31.3784 199.898 31.2292C199.729 31.2012 199.567 31.1687 199.427 31.1363C198.68 31.0153 198.01 30.6069 197.558 30.0039C197.104 29.401 196.899 28.6403 196.987 27.8883L200.941 27.9164C201.834 27.9164 201.32 28.1908 201.668 28.7008C202.598 29.5739 204.605 29.1503 205.714 28.9472C207.19 28.6403 208.064 27.0455 208.252 25.5695C207.554 25.9412 206.814 26.2243 206.049 26.4102C204.639 26.6457 203.199 26.6889 201.775 26.5355V26.5722L201.766 26.5679L201.76 26.5658ZM157.105 10.559C157.448 10.6001 157.783 10.6649 158.118 10.7579C158.476 10.8551 158.828 10.9848 159.163 11.1425C159.342 11.2268 159.51 11.324 159.674 11.4299C159.802 11.5142 159.922 11.6007 160.041 11.7044L160.124 11.7735C160.267 11.9183 160.4 12.0653 160.523 12.223C160.592 12.3116 160.651 12.4132 160.711 12.5018C160.762 12.5947 160.807 12.6877 160.843 12.7849C160.879 12.8778 160.907 12.9751 160.926 13.0723C160.946 13.1696 160.958 13.2668 160.963 13.3684C160.404 17.8374 159.681 22.2869 159.071 26.7451C158.924 26.7905 158.76 26.8467 158.632 26.8748C158.124 27.0044 157.597 27.0282 157.079 26.9547C156.883 26.9223 156.684 26.8748 156.492 26.8208C156.213 26.7235 155.953 26.5787 155.718 26.395C155.539 26.2502 155.383 26.0838 155.255 25.8937C155.187 25.7964 155.127 25.6992 155.076 25.5911C154.865 25.1135 154.805 24.5798 154.897 24.0654C155.351 20.8542 155.808 17.645 156.271 14.4338V14.397C156.286 14.2846 156.286 14.1744 156.271 14.0685C156.219 13.846 156.111 13.6471 155.959 13.4786C155.795 13.2927 155.592 13.1436 155.373 13.0421C155.245 12.9772 155.113 12.9297 154.974 12.8929C154.424 12.7763 153.856 12.7633 153.298 12.8562C153.022 12.9081 152.758 12.9902 152.5 13.0982C152.169 13.2366 151.881 13.4656 151.67 13.753C150.74 17.9649 150.448 22.3928 149.751 26.6846H145.161C145.748 22.6024 146.302 18.5224 146.889 14.4446C146.904 14.3322 146.904 14.222 146.889 14.1053C146.87 13.9929 146.838 13.887 146.788 13.7855C146.684 13.5758 146.522 13.3965 146.33 13.2603C146.234 13.1868 146.123 13.122 146.014 13.0702C145.635 12.8994 145.221 12.8152 144.805 12.8238C144.361 12.7676 143.911 12.8152 143.491 12.9578C143.069 13.1026 142.681 13.3381 142.359 13.6493C141.333 17.8395 141.186 22.3301 140.431 26.6349H135.694C136.455 21.3361 137.21 16.0372 137.961 10.7384C139.162 10.5893 140.375 10.5569 141.58 10.6325C142.126 10.6844 142.561 10.8551 142.706 11.4407C143.086 11.2419 143.481 11.069 143.879 10.9221C144.163 10.8205 144.457 10.7362 144.75 10.6757C145.803 10.4445 146.889 10.4121 147.951 10.5742C148.143 10.6023 148.345 10.6433 148.537 10.6909C148.729 10.7362 148.917 10.8032 149.096 10.8681C149.275 10.9329 149.448 11.0021 149.61 11.0777C150.15 11.3284 150.644 11.6763 151.062 12.102C151.956 11.3932 153.001 10.9048 154.114 10.6736C154.741 10.5396 155.383 10.4704 156.025 10.4748C156.392 10.4704 156.759 10.4834 157.126 10.5266L157.107 10.5634L157.105 10.559ZM131.141 10.559C131.723 10.4532 132.314 10.4143 132.904 10.4575C133.156 10.4812 133.399 10.5309 133.638 10.6109C133.743 10.6476 133.845 10.6887 133.945 10.7449C134.12 10.8378 134.271 10.9588 134.399 11.1123C134.463 11.1901 134.523 11.2743 134.574 11.3586C134.625 11.4515 134.67 11.5488 134.711 11.646C135.15 12.7741 134.009 18.0254 133.956 19.2874L132.979 26.3994L132.943 26.6219H128.325L128.366 26.3259L129.492 18.3495L130.558 10.8378V10.6563L131.141 10.5504V10.559ZM108.226 24.636C105.968 27.2443 101.557 26.5852 98.497 26.6587C96.4581 26.6587 93.0905 25.8332 93.5533 23.1751C93.5533 23.026 93.7644 21.6775 93.7687 21.5695H97.5244C98.6292 21.5695 98.3178 21.8979 98.1877 22.8639C98.0768 24.0049 99.4567 24.4047 100.372 24.3853C101.429 24.3853 102.846 24.5387 103.724 23.7953C103.903 23.657 104.048 23.4798 104.155 23.2767C104.283 23.1232 104.554 20.8261 104.609 20.5948V20.5667C104.481 18.4187 100.89 19.1837 99.5015 19.0497C98.3839 19.0735 97.2749 18.8401 96.2576 18.3733C95.3789 17.9195 94.4938 17.0551 94.6132 16.0113C94.6132 15.9702 94.8159 13.7379 94.8159 13.6968C94.8884 13.3446 95.0313 13.0053 95.2317 12.7093C95.4343 12.4132 95.6903 12.1517 95.9931 11.9572C97.4135 10.9588 99.1091 10.4445 100.841 10.4856C103.031 10.5698 106.424 10.0815 108.327 11.4126C108.455 11.4969 108.583 11.5899 108.698 11.6763C108.969 11.8946 109.197 12.1582 109.376 12.4607C109.532 12.7071 109.619 12.9902 109.632 13.2819C109.647 13.5737 109.585 13.8611 109.457 14.1269H105.669C104.872 14.1269 105.051 14.034 104.688 13.4678C104.454 13.2085 104.17 13.0032 103.846 12.8778C103.526 12.7482 103.176 12.6963 102.829 12.7244C101.766 12.6877 100.442 12.7244 99.7126 13.6147C99.3778 13.8784 99.3564 14.7558 99.2818 15.1404C99.1176 16.2404 100.128 16.5645 101.417 16.5408C102.997 16.5775 105.411 16.3636 106.9 16.9492L107.068 17.014C107.883 17.2885 108.581 17.8266 109.056 18.5397C109.643 19.3242 108.813 22.4879 108.781 23.4993C108.685 23.9034 108.497 24.2794 108.222 24.5906V24.6316L108.226 24.636Z" fill="#1843BF"/>
<path fill-rule="evenodd" clip-rule="evenodd" d="M215.439 25.2216C215.439 24.355 216.171 23.616 217.049 23.616C217.928 23.616 218.64 24.355 218.64 25.2216C218.64 26.0882 217.909 26.8445 217.049 26.8445C216.19 26.8445 215.439 26.1055 215.439 25.2216Z" fill="#1843BF"/>
<path fill-rule="evenodd" clip-rule="evenodd" d="M219.848 15.0021C219.848 14.1161 220.579 13.3792 221.439 13.3792C222.298 13.3792 223.049 14.1183 223.049 15.0021C223.049 15.886 222.317 16.625 221.439 16.625C220.56 16.625 219.848 15.886 219.848 15.0021ZM220.048 17.3447H222.846V26.6436H220.048V17.3447Z" fill="#1843BF"/>
<path fill-rule="evenodd" clip-rule="evenodd" d="M224.661 23.026V20.8671C224.661 17.9713 226.435 17.0853 229.82 17.0853C233.205 17.0853 234.979 17.9713 234.979 20.8671V23.026C234.979 25.9218 233.149 26.7905 229.837 26.7905C226.525 26.7905 224.659 25.9239 224.659 23.026H224.661ZM232.198 23.026V20.8671C232.198 19.4841 231.595 18.7817 229.837 18.7817C228.08 18.7817 227.459 19.4819 227.459 20.8671V23.026C227.459 24.3918 228.063 25.0919 229.837 25.0919C231.612 25.0919 232.198 24.3918 232.198 23.026Z" fill="#1843BF"/>
<path d="M215.439 25.2216C215.439 24.355 216.171 23.616 217.049 23.616C217.928 23.616 218.64 24.355 218.64 25.2216C218.64 26.0882 217.909 26.8445 217.049 26.8445C216.19 26.8445 215.439 26.1055 215.439 25.2216Z" fill="#1843BF"/>
<path d="M219.848 15.0021C219.848 14.1161 220.579 13.3792 221.439 13.3792C222.298 13.3792 223.049 14.1183 223.049 15.0021C223.049 15.886 222.317 16.625 221.439 16.625C220.56 16.625 219.848 15.886 219.848 15.0021ZM220.048 17.3447H222.846V26.6436H220.048V17.3447Z" fill="#1843BF"/>
<path d="M224.661 23.026V20.8671C224.661 17.9713 226.435 17.0853 229.82 17.0853C233.205 17.0853 234.979 17.9713 234.979 20.8671V23.026C234.979 25.9218 233.149 26.7905 229.837 26.7905C226.525 26.7905 224.659 25.9239 224.659 23.026H224.661ZM232.198 23.026V20.8671C232.198 19.4841 231.595 18.7817 229.837 18.7817C228.08 18.7817 227.459 19.4819 227.459 20.8671V23.026C227.459 24.3918 228.063 25.0919 229.837 25.0919C231.612 25.0919 232.198 24.3918 232.198 23.026Z" fill="#1843BF"/>
<path fill-rule="evenodd" clip-rule="evenodd" d="M135.248 9.01381H130.663L131.121 5.78091H135.694L135.25 9.01381H135.248Z" fill="#FF6600"/>
<path d="M62.1831 41.9416H60.8181L60.3425 40.7228H57.9603L57.4932 41.9416H56.1709L58.502 36.1868H59.8413L62.1809 41.9416H62.1831ZM59.1482 37.6563L58.3761 39.6487H59.9181L59.1461 37.6563H59.1482Z" fill="#1A75E2"/>
<path d="M66.7599 39.6141H68.0054C67.9159 40.3251 67.6087 40.9108 67.0862 41.3711C66.5637 41.8314 65.9132 42.0626 65.1326 42.0626C64.2625 42.0626 63.5565 41.7752 63.0127 41.1982C62.471 40.6233 62.198 39.9145 62.198 39.0717C62.198 38.2289 62.4689 37.5093 63.0127 36.928C63.5544 36.3467 64.2625 36.0571 65.1326 36.0571C65.8898 36.0571 66.5296 36.284 67.0521 36.7357C67.5746 37.1873 67.8881 37.76 67.9884 38.4537H66.7343C66.6384 38.0928 66.4464 37.8032 66.1628 37.5828C65.877 37.3624 65.5315 37.2543 65.1241 37.2608C64.6165 37.2673 64.2049 37.4423 63.8957 37.7881C63.5843 38.1338 63.4286 38.5596 63.4286 39.0631C63.4286 39.5666 63.5843 39.9945 63.8957 40.3424C64.207 40.6925 64.6208 40.8654 65.1412 40.8654C65.5528 40.8654 65.9047 40.7508 66.1969 40.5218C66.4869 40.2927 66.6767 39.9902 66.7599 39.612V39.6141Z" fill="#1A75E2"/>
<path d="M73.0663 39.6141H74.3118C74.2223 40.3251 73.9151 40.9108 73.3926 41.3711C72.8701 41.8314 72.2196 42.0626 71.439 42.0626C70.5689 42.0626 69.8629 41.7752 69.3191 41.1982C68.7774 40.6233 68.5044 39.9145 68.5044 39.0717C68.5044 38.2289 68.7753 37.5093 69.3191 36.928C69.8608 36.3467 70.5689 36.0571 71.439 36.0571C72.1962 36.0571 72.836 36.284 73.3585 36.7357C73.881 37.1873 74.1945 37.76 74.2948 38.4537H73.0407C72.9448 38.0928 72.7528 37.8032 72.4692 37.5828C72.1834 37.3624 71.8379 37.2543 71.4305 37.2608C70.9229 37.2673 70.5113 37.4423 70.2021 37.7881C69.8907 38.1338 69.735 38.5596 69.735 39.0631C69.735 39.5666 69.8907 39.9945 70.2021 40.3424C70.5134 40.6925 70.9272 40.8654 71.4476 40.8654C71.8592 40.8654 72.2111 40.7508 72.5033 40.5218C72.7933 40.2927 72.9831 39.9902 73.0663 39.612V39.6141Z" fill="#1A75E2"/>
<path d="M79.4155 41.9416H75.0669V36.1868H79.4155V37.3732H76.2698V38.4472H79.0508V39.5817H76.2698V40.7573H79.4155V41.9437V41.9416Z" fill="#1A75E2"/>
<path d="M83.18 36.1868C83.7387 36.1868 84.2079 36.3748 84.5876 36.7486C84.9651 37.1247 85.1549 37.5958 85.1549 38.1619C85.1549 38.7281 84.9651 39.2144 84.5833 39.5839C84.2015 39.9534 83.7345 40.1371 83.18 40.1371H81.5356V41.9416H80.3328V36.1868H83.18ZM81.5356 38.9788H83.0861C83.3293 38.9788 83.5319 38.9053 83.6918 38.7562C83.8539 38.6071 83.9328 38.4105 83.9328 38.1641C83.9328 37.935 83.8518 37.747 83.6876 37.5979C83.5233 37.4488 83.3229 37.3753 83.0861 37.3753H81.5356V38.981V38.9788Z" fill="#1A75E2"/>
<path d="M85.417 36.1868H90.4353V37.3732H88.5287V41.9416H87.3173V37.3732H85.4191V36.1868H85.417Z" fill="#1A75E2"/>
<path d="M97.3092 39.6141H98.5547C98.4652 40.3251 98.1581 40.9108 97.6355 41.3711C97.113 41.8314 96.4625 42.0626 95.682 42.0626C94.8118 42.0626 94.1059 41.7752 93.562 41.1982C93.0203 40.6233 92.7473 39.9145 92.7473 39.0717C92.7473 38.2289 93.0182 37.5093 93.562 36.928C94.1037 36.3467 94.8118 36.0571 95.682 36.0571C96.4391 36.0571 97.0789 36.284 97.6014 36.7357C98.1239 37.1873 98.4374 37.76 98.5377 38.4537H97.2836C97.1877 38.0928 96.9957 37.8032 96.7121 37.5828C96.4263 37.3624 96.0808 37.2543 95.6734 37.2608C95.1658 37.2673 94.7542 37.4423 94.445 37.7881C94.1336 38.1338 93.9779 38.5596 93.9779 39.0631C93.9779 39.5666 94.1336 39.9945 94.445 40.3424C94.7563 40.6925 95.1701 40.8654 95.6905 40.8654C96.1021 40.8654 96.454 40.7508 96.7462 40.5218C97.0362 40.2927 97.2261 39.9902 97.3092 39.612V39.6141Z" fill="#1A75E2"/>
<path d="M100.515 41.9416H99.3118V36.1868H102.219C102.807 36.1868 103.279 36.3272 103.639 36.6082C103.997 36.8891 104.177 37.2846 104.177 37.7946C104.177 38.3046 103.991 38.7303 103.618 39.0047V39.0307C104.081 39.1517 104.313 39.5083 104.313 40.1047V41.9437H103.11V40.3295C103.11 40.1004 102.991 39.9858 102.754 39.9858H100.517V41.9437L100.515 41.9416ZM100.515 37.3732V38.8772H102.125C102.379 38.8772 102.583 38.8103 102.739 38.6763C102.895 38.5423 102.972 38.3564 102.972 38.123C102.972 37.8897 102.893 37.7125 102.735 37.5785C102.577 37.4445 102.377 37.3775 102.133 37.3775H100.515V37.3732Z" fill="#1A75E2"/>
<path d="M108.677 36.1868H110.042L107.77 39.7179V41.9416H106.568V39.7265L104.296 36.1868H105.687L107.186 38.592L108.679 36.1868H108.677Z" fill="#1A75E2"/>
<path d="M113.339 36.1868C113.898 36.1868 114.367 36.3748 114.747 36.7486C115.124 37.1247 115.314 37.5958 115.314 38.1619C115.314 38.7281 115.124 39.2144 114.742 39.5839C114.36 39.9534 113.893 40.1371 113.339 40.1371H111.695V41.9416H110.492V36.1868H113.339ZM111.695 38.9788H113.245C113.488 38.9788 113.691 38.9053 113.851 38.7562C114.011 38.6071 114.092 38.4105 114.092 38.1641C114.092 37.935 114.011 37.747 113.846 37.5979C113.682 37.4488 113.482 37.3753 113.245 37.3753H111.695V38.981V38.9788Z" fill="#1A75E2"/>
<path d="M115.576 36.1868H120.594V37.3732H118.688V41.9416H117.476V37.3732H115.578V36.1868H115.576Z" fill="#1A75E2"/>
<path d="M125.871 41.2003C125.321 41.7752 124.598 42.0648 123.704 42.0648C122.81 42.0648 122.09 41.7773 121.537 41.2003C120.987 40.6255 120.71 39.9167 120.71 39.0739C120.71 38.2311 120.987 37.5201 121.541 36.9345C122.096 36.351 122.815 36.0593 123.702 36.0593C124.589 36.0593 125.31 36.351 125.865 36.9345C126.419 37.518 126.694 38.2311 126.694 39.0739C126.694 39.9167 126.419 40.6234 125.867 41.2003H125.871ZM122.424 40.3424C122.746 40.6947 123.173 40.8719 123.704 40.8719C124.235 40.8719 124.662 40.6968 124.984 40.3489C125.306 39.9988 125.468 39.5731 125.468 39.0696C125.468 38.5661 125.306 38.1382 124.984 37.7902C124.662 37.4402 124.235 37.2673 123.704 37.2673C123.173 37.2673 122.746 37.4423 122.424 37.7902C122.102 38.1403 121.942 38.5661 121.942 39.0696C121.942 39.5731 122.102 39.9923 122.424 40.3446V40.3424Z" fill="#1A75E2"/>
<path d="M131.793 39.6141H133.039C132.949 40.3251 132.642 40.9108 132.12 41.3711C131.597 41.8314 130.947 42.0626 130.166 42.0626C129.296 42.0626 128.59 41.7752 128.046 41.1982C127.504 40.6233 127.231 39.9145 127.231 39.0717C127.231 38.2289 127.502 37.5093 128.046 36.928C128.588 36.3467 129.296 36.0571 130.166 36.0571C130.923 36.0571 131.563 36.284 132.086 36.7357C132.608 37.1873 132.922 37.76 133.022 38.4537H131.768C131.672 38.0928 131.48 37.8032 131.196 37.5828C130.91 37.3624 130.565 37.2543 130.158 37.2608C129.65 37.2673 129.238 37.4423 128.929 37.7881C128.62 38.1338 128.462 38.5596 128.462 39.0631C128.462 39.5666 128.618 39.9945 128.929 40.3424C129.24 40.6903 129.656 40.8654 130.175 40.8654C130.586 40.8654 130.938 40.7508 131.23 40.5218C131.523 40.2927 131.71 39.9902 131.793 39.612V39.6141Z" fill="#1A75E2"/>
<path d="M133.709 39.478V36.1889H134.92V39.4607C134.92 39.8843 135.037 40.2322 135.272 40.5045C135.507 40.7768 135.824 40.9129 136.225 40.9129C136.626 40.9129 136.953 40.7768 137.187 40.5045C137.422 40.2322 137.539 39.8843 137.539 39.4607V36.1889H138.742V39.478C138.742 40.2733 138.514 40.9086 138.06 41.384C137.605 41.8595 136.993 42.0972 136.225 42.0972C135.458 42.0972 134.852 41.8595 134.395 41.384C133.939 40.9086 133.709 40.2733 133.709 39.478Z" fill="#1A75E2"/>
<path d="M140.947 41.9416H139.744V36.1868H142.651C143.24 36.1868 143.711 36.3272 144.072 36.6082C144.43 36.8891 144.609 37.2846 144.609 37.7946C144.609 38.3046 144.424 38.7303 144.05 39.0047V39.0307C144.513 39.1517 144.746 39.5083 144.746 40.1047V41.9437H143.543V40.3295C143.543 40.1004 143.423 39.9858 143.187 39.9858H140.949V41.9437L140.947 41.9416ZM140.947 37.3732V38.8772H142.557C142.811 38.8772 143.016 38.8103 143.172 38.6763C143.327 38.5423 143.404 38.3564 143.404 38.123C143.404 37.8897 143.325 37.7125 143.167 37.5785C143.01 37.4445 142.809 37.3775 142.566 37.3775H140.947V37.3732Z" fill="#1A75E2"/>
<path d="M146.915 41.9416H145.712V36.1868H148.619C149.207 36.1868 149.679 36.3272 150.039 36.6082C150.397 36.8891 150.576 37.2846 150.576 37.7946C150.576 38.3046 150.391 38.7303 150.018 39.0047V39.0307C150.48 39.1517 150.713 39.5083 150.713 40.1047V41.9437H149.51V40.3295C149.51 40.1004 149.391 39.9858 149.154 39.9858H146.917V41.9437L146.915 41.9416ZM146.915 37.3732V38.8772H148.525C148.779 38.8772 148.983 38.8103 149.139 38.6763C149.295 38.5423 149.371 38.3564 149.371 38.123C149.371 37.8897 149.293 37.7125 149.135 37.5785C148.977 37.4445 148.776 37.3775 148.533 37.3775H146.915V37.3732Z" fill="#1A75E2"/>
<path d="M156.028 41.9416H151.679V36.1868H156.028V37.3732H152.882V38.4472H155.663V39.5817H152.882V40.7573H156.028V41.9437V41.9416Z" fill="#1A75E2"/>
<path d="M161.055 39.9664V36.1868H162.257V41.9416H161.055L158.148 37.9307V41.9416H156.945V36.1868H158.318L161.057 39.9664H161.055Z" fill="#1A75E2"/>
<path d="M167.589 39.6141H168.835C168.745 40.3251 168.438 40.9108 167.916 41.3711C167.393 41.8314 166.743 42.0626 165.962 42.0626C165.092 42.0626 164.386 41.7752 163.842 41.1982C163.3 40.6233 163.027 39.9145 163.027 39.0717C163.027 38.2289 163.298 37.5093 163.842 36.928C164.384 36.3467 165.092 36.0571 165.962 36.0571C166.719 36.0571 167.359 36.284 167.881 36.7357C168.404 37.1873 168.717 37.76 168.818 38.4537H167.564C167.468 38.0928 167.276 37.8032 166.992 37.5828C166.706 37.3624 166.361 37.2543 165.953 37.2608C165.446 37.2673 165.034 37.4423 164.725 37.7881C164.416 38.1338 164.258 38.5596 164.258 39.0631C164.258 39.5666 164.414 39.9945 164.725 40.3424C165.036 40.6903 165.452 40.8654 165.971 40.8654C166.382 40.8654 166.734 40.7508 167.026 40.5218C167.318 40.2927 167.506 39.9902 167.589 39.612V39.6141Z" fill="#1A75E2"/>
<path d="M172.913 36.1868H174.278L172.006 39.7179V41.9416H170.803V39.7265L168.532 36.1868H169.923L171.424 38.592L172.917 36.1868H172.913Z" fill="#1A75E2"/>
<path d="M181.322 41.9416H176.973V36.1868H181.322V37.3732H178.176V38.4472H180.957V39.5817H178.176V40.7573H181.322V41.9437V41.9416Z" fill="#1A75E2"/>
<path d="M184.653 40.4397L186.366 36.1889H187.654L185.289 41.9437H183.975L181.618 36.1889H182.924L184.653 40.4397Z" fill="#1A75E2"/>
<path d="M192.453 41.9416H188.104V36.1868H192.453V37.3732H189.307V38.4472H192.088V39.5817H189.307V40.7573H192.453V41.9437V41.9416Z" fill="#1A75E2"/>
<path d="M194.571 41.9416H193.368V36.1868H196.275C196.863 36.1868 197.335 36.3272 197.695 36.6082C198.053 36.8891 198.232 37.2846 198.232 37.7946C198.232 38.3046 198.047 38.7303 197.674 39.0047V39.0307C198.136 39.1517 198.369 39.5083 198.369 40.1047V41.9437H197.166V40.3295C197.166 40.1004 197.047 39.9858 196.81 39.9858H194.573V41.9437L194.571 41.9416ZM194.571 37.3732V38.8772H196.181C196.435 38.8772 196.639 38.8103 196.795 38.6763C196.951 38.5423 197.027 38.3564 197.027 38.123C197.027 37.8897 196.949 37.7125 196.791 37.5785C196.633 37.4445 196.432 37.3775 196.189 37.3775H194.571V37.3732Z" fill="#1A75E2"/>
<path d="M202.735 36.1868H204.1L201.828 39.7179V41.9416H200.625V39.7265L198.354 36.1868H199.745L201.246 38.592L202.739 36.1868H202.735Z" fill="#1A75E2"/>
<path d="M209.879 40.0096L210.948 36.1868H212.245L210.617 41.9416H209.269L208.269 38.283L207.26 41.9416H205.912L204.285 36.1868H205.573L206.65 40.0183L207.685 36.1868H208.847L209.881 40.0096H209.879Z" fill="#1A75E2"/>
<path d="M216.713 38.4126V36.1889H217.924V41.9437H216.713V39.599H214.042V41.9437H212.84V36.1889H214.042V38.4126H216.713Z" fill="#1A75E2"/>
<path d="M223.401 41.9416H219.052V36.1868H223.401V37.3732H220.255V38.4472H223.036V39.5817H220.255V40.7573H223.401V41.9437V41.9416Z" fill="#1A75E2"/>
<path d="M225.519 41.9416H224.316V36.1868H227.223C227.811 36.1868 228.283 36.3272 228.643 36.6082C229.001 36.8891 229.18 37.2846 229.18 37.7946C229.18 38.3046 228.995 38.7303 228.622 39.0047V39.0307C229.084 39.1517 229.317 39.5083 229.317 40.1047V41.9437H228.114V40.3295C228.114 40.1004 227.995 39.9858 227.758 39.9858H225.521V41.9437L225.519 41.9416ZM225.519 37.3732V38.8772H227.129C227.383 38.8772 227.587 38.8103 227.743 38.6763C227.899 38.5423 227.975 38.3564 227.975 38.123C227.975 37.8897 227.897 37.7125 227.739 37.5785C227.581 37.4445 227.38 37.3775 227.137 37.3775H225.519V37.3732Z" fill="#1A75E2"/>
<path d="M234.632 41.9416H230.283V36.1868H234.632V37.3732H231.486V38.4472H234.267V39.5817H231.486V40.7573H234.632V41.9437V41.9416Z" fill="#1A75E2"/>
<g clip-path="url(#clip0_9170_116935)">
<path d="M75.4242 10.72L75.6263 10.064C75.6263 10.064 75.9293 7.19099 75.695 5.32268C75.4606 3.45437 73.5736 0.930073 68.5913 0.651902C63.6091 0.373731 61.2493 1.44905 60.2068 1.89744C59.1643 2.34584 57.4106 3.66196 56.5702 3.21356C55.7297 2.76517 56.0327 0.689268 55.2569 0.132927C54.4811 -0.419263 52.0243 0.788912 50.7434 2.69459C50.7434 2.69459 52.8325 1.89744 53.4386 2.41642C54.0447 2.93539 54.6508 6.56822 54.7518 8.15836C54.8528 9.7485 55.2569 10.6162 60.8816 8.33274L61.015 9.12988C61.015 9.12988 68.7247 12.0694 75.4283 10.72H75.4242Z" fill="#F51D33"/>
<path d="M60.4493 6.33566C60.4735 6.51003 60.4897 6.68441 60.522 6.85463C60.5544 7.02486 60.5948 7.20754 60.6271 7.38606C60.6594 7.56459 60.6877 7.72651 60.716 7.90089C60.7443 8.07526 60.7402 8.2704 60.7928 8.43647C60.8291 8.55687 60.9827 8.52366 60.9948 8.40741C61.015 8.23303 60.9665 8.03374 60.9423 7.85937C60.918 7.68499 60.8938 7.50231 60.8574 7.32379C60.821 7.14526 60.7887 6.97088 60.7402 6.79651C60.6917 6.62213 60.619 6.46021 60.5463 6.29414C60.522 6.23186 60.4412 6.28168 60.4493 6.33566Z" fill="#CC1616"/>
<path d="M60.7565 7.31547C60.7161 7.22413 60.5908 7.20752 60.506 7.19091C60.409 7.17015 60.3161 7.14524 60.2191 7.12448C60.1221 7.10373 60.0251 7.09127 59.9281 7.07466C59.8797 7.06636 59.8271 7.07466 59.7786 7.06636C59.7302 7.05806 59.6817 7.0539 59.6332 7.05806C59.5806 7.05806 59.5524 7.14109 59.6049 7.166C59.6493 7.18676 59.6897 7.20337 59.7382 7.21582C59.7867 7.22828 59.8312 7.25319 59.8756 7.2698C59.9686 7.30301 60.0736 7.32792 60.1706 7.34868C60.2676 7.36944 60.3645 7.38605 60.4615 7.40681C60.5504 7.42341 60.6716 7.46078 60.7484 7.3902C60.7686 7.36944 60.7686 7.34038 60.7565 7.31547Z" fill="#CC1616"/>
<path d="M59.9363 11.9323C59.9363 11.9323 62.5304 14.5977 68.5552 14.8053C74.584 15.0129 75.2911 13.6304 75.2911 13.6304C75.2911 13.6304 75.7638 12.0029 75.6265 10.0681C75.6265 10.0681 66.9712 11.5545 60.8778 8.33682C60.8778 8.33682 60.0373 9.75674 59.9363 11.9364V11.9323Z" fill="#E6EAF0"/>
<path d="M51.5314 4.24321C51.1799 4.98223 50.2262 5.2438 49.3979 4.82862C48.5736 4.41344 48.1857 3.47513 48.5372 2.74026C48.8888 2.00124 49.8424 1.73968 50.6707 2.15486C51.4991 2.57004 51.8829 3.50419 51.5314 4.24321Z" fill="#E6EAF0"/>
</g>
<defs>
<clipPath id="clip0_9170_116935">
<rect width="27.376" height="14.8261" fill="white" transform="translate(48.408)"/>
</clipPath>
</defs>
</svg>
