<svg width="21" height="21" viewBox="0 0 21 21" fill="none" xmlns="http://www.w3.org/2000/svg">
<path d="M4.82068 9.03952C4.83418 7.44672 4.92261 6.56862 5.50166 5.98957C6.0807 5.41052 6.9588 5.3221 8.5516 5.30859" stroke="#1843BF" stroke-width="1.5" stroke-linecap="round"/>
<path d="M4.82068 12.7758C4.83418 14.3686 4.92261 15.2467 5.50166 15.8258C6.0807 16.4048 6.9588 16.4932 8.5516 16.5067" stroke="#1843BF" stroke-width="1.5" stroke-linecap="round"/>
<path d="M16.0184 9.03952C16.0049 7.44672 15.9164 6.56862 15.3374 5.98957C14.7583 5.41052 13.8803 5.3221 12.2875 5.30859" stroke="#1843BF" stroke-width="1.5" stroke-linecap="round"/>
<path d="M16.0184 12.7758C16.0049 14.3686 15.9164 15.2467 15.3374 15.8258C14.7583 16.4048 13.8803 16.4932 12.2875 16.5067" stroke="#1843BF" stroke-width="1.5" stroke-linecap="round"/>
<path d="M19.7539 10.9086C19.7539 15.3083 19.7539 17.5082 18.3871 18.8751C17.0202 20.2419 14.8204 20.2419 10.4206 20.2419C6.02084 20.2419 3.82095 20.2419 2.45412 18.8751C1.08728 17.5082 1.08728 15.3083 1.08728 10.9086C1.08728 6.50882 1.08728 4.30893 2.45412 2.94209C3.82095 1.57526 6.02084 1.57526 10.4206 1.57526C14.8204 1.57526 17.0202 1.57526 18.3871 2.94209C19.2959 3.85092 19.6004 5.12804 19.7025 7.17522" stroke="#1843BF" stroke-width="1.5" stroke-linecap="round"/>
</svg>
